<svg xmlns="http://www.w3.org/2000/svg" width="304" height="94" fill="none" viewBox="0 0 304 94">
    <path fill="#5C5C5C" d="M2.808 8.462c-.792 0-1.46-.224-2.004-.673C.268 7.333 0 6.525 0 5.365c0-1.152.268-1.956.804-2.412.544-.457 1.212-.685 2.004-.685.6 0 1.193.112 1.777.336v.829a4.374 4.374 0 0 0-1.68-.336c-.713 0-1.233.18-1.56.54-.321.36-.481.936-.481 1.728 0 .8.16 1.38.48 1.74.328.352.848.528 1.56.528.6 0 1.16-.112 1.68-.336v.84a4.893 4.893 0 0 1-1.776.325zm5.86.084c-.92 0-1.613-.272-2.077-.817-.456-.544-.684-1.324-.684-2.34 0-1.032.232-1.808.696-2.328.472-.529 1.153-.793 2.04-.793.937 0 1.633.28 2.09.84.455.553.683 1.313.683 2.281 0 .992-.24 1.768-.72 2.328-.48.553-1.156.829-2.028.829zm-.012-.793c1.264 0 1.896-.788 1.896-2.364 0-.752-.148-1.328-.444-1.728-.296-.4-.78-.6-1.452-.6-1.257 0-1.885.776-1.885 2.328 0 1.576.628 2.364 1.885 2.364zm4.384-4.896a5.536 5.536 0 0 1 2.533-.589c.84 0 1.444.184 1.812.553.376.368.564.916.564 1.644v3.9h-.864v-3.9c0-.944-.536-1.416-1.608-1.416-.496 0-1.02.08-1.572.24v5.077h-.864v-5.51zm8.718 5.605c-.44 0-.8-.132-1.08-.397-.28-.272-.42-.656-.42-1.152V3.17h-1.044v-.793h1.044V.684h.864v1.692h1.548v.793h-1.548v3.468c0 .352.056.608.168.768.112.16.32.24.624.24.296 0 .548-.048.756-.144v.817c-.112.04-.256.072-.432.096a2.567 2.567 0 0 1-.48.048zm2.476-5.605a8.946 8.946 0 0 1 1.2-.385 5.963 5.963 0 0 1 1.56-.204c.08 0 .209.024.384.072v.769a5.192 5.192 0 0 0-1.308.012c-.224.032-.548.084-.972.156v5.089h-.864v-5.51zm7.08-.589c.673 0 1.2.164 1.585.493.392.328.588.804.588 1.428v2.904c0 .576-.236.964-.708 1.165-.472.192-1.124.288-1.956.288-.633 0-1.177-.14-1.633-.42-.448-.28-.672-.749-.672-1.405 0-.712.196-1.228.588-1.548.392-.328.932-.492 1.62-.492.777 0 1.405.14 1.885.42v-.708c0-.896-.524-1.344-1.572-1.344-.344 0-.693.048-1.045.144-.352.096-.648.24-.888.432V2.76c.24-.153.564-.273.972-.36a5.96 5.96 0 0 1 1.237-.133zm-.287 5.51c.56 0 .964-.04 1.212-.12.248-.089.372-.26.372-.517V5.797a3.11 3.11 0 0 0-.756-.24 4.139 4.139 0 0 0-.9-.096c-.504 0-.892.096-1.165.288-.272.192-.408.472-.408.84 0 .416.16.72.48.912.32.184.709.276 1.165.276zm6.885.684c-.792 0-1.46-.224-2.004-.673-.536-.456-.804-1.264-.804-2.424 0-1.152.268-1.956.804-2.412.544-.457 1.212-.685 2.004-.685.6 0 1.193.112 1.777.336v.829a4.374 4.374 0 0 0-1.68-.336c-.713 0-1.233.18-1.56.54-.32.36-.48.936-.48 1.728 0 .8.16 1.38.48 1.74.327.352.847.528 1.56.528.6 0 1.16-.112 1.68-.336v.84a4.893 4.893 0 0 1-1.777.325zm5.284 0c-.44 0-.8-.132-1.08-.397-.28-.272-.42-.656-.42-1.152V3.17H40.65v-.793h1.044V.684h.864v1.692h1.549v.793H42.56v3.468c0 .352.055.608.167.768.113.16.32.24.625.24.296 0 .548-.048.756-.144v.817c-.112.04-.256.072-.432.096a2.567 2.567 0 0 1-.48.048zm7.84 0c-.44 0-.8-.132-1.08-.397-.28-.272-.42-.656-.42-1.152V3.17h-1.044v-.793h1.045V.684h.864v1.692h1.548v.793h-1.548v3.468c0 .352.056.608.168.768.112.16.32.24.624.24.296 0 .548-.048.756-.144v.817c-.112.04-.256.072-.432.096a2.568 2.568 0 0 1-.48.048zm4.937.084c-.92 0-1.612-.272-2.076-.817-.456-.544-.684-1.324-.684-2.34 0-1.032.232-1.808.696-2.328.472-.529 1.152-.793 2.04-.793.936 0 1.633.28 2.089.84.456.553.684 1.313.684 2.281 0 .992-.24 1.768-.72 2.328-.48.553-1.157.829-2.029.829zm-.012-.793c1.264 0 1.897-.788 1.897-2.364 0-.752-.148-1.328-.445-1.728-.296-.4-.78-.6-1.452-.6-1.256 0-1.884.776-1.884 2.328 0 1.576.628 2.364 1.884 2.364zm8.046.613L61.21 5.533v2.833h-.864V.096h.864v4.5l2.437-2.22h1.08l-2.94 2.593 3.372 3.397h-1.152zm4.258-6.098c.912 0 1.58.296 2.005.889.424.592.628 1.38.612 2.364h-4.369c0 .72.168 1.272.504 1.656.336.384.816.576 1.44.576.8 0 1.485-.172 2.053-.516v.889c-.584.28-1.285.42-2.1.42-.873 0-1.553-.268-2.041-.805-.488-.544-.732-1.336-.732-2.376 0-1.016.228-1.784.684-2.304.464-.529 1.112-.793 1.944-.793zm0 .793c-.528 0-.928.124-1.2.372-.272.24-.444.672-.516 1.296h3.42c-.04-.56-.2-.976-.48-1.248-.272-.28-.68-.42-1.224-.42zm4.236-.204a5.536 5.536 0 0 1 2.532-.589c.84 0 1.444.184 1.812.553.376.368.564.916.564 1.644v3.9h-.864v-3.9c0-.944-.536-1.416-1.608-1.416-.496 0-1.02.08-1.572.24v5.077H72.5v-5.51zm13.002 6.829c-.584 0-1.032-.156-1.344-.468-.304-.304-.456-.748-.456-1.333V6.013c0-.432-.252-.724-.756-.876v-.588c.208-.056.384-.152.528-.288.152-.136.228-.328.228-.576V1.812c0-.584.152-1.032.456-1.344.312-.312.76-.468 1.344-.468h.097v.816h-.097c-.32.016-.556.088-.708.216-.152.128-.228.368-.228.72v1.933c0 .464-.232.852-.696 1.164.464.312.696.7.696 1.164v1.932c0 .345.076.58.228.709.152.136.388.212.708.228h.097v.804h-.097zM20.525 16.27c.84 0 1.445.184 1.813.552.376.368.564.916.564 1.644v3.901h-.864v-3.9c0-.945-.536-1.417-1.609-1.417a2.79 2.79 0 0 0-1.452.408c.104.28.156.616.156 1.008v3.901h-.864v-3.9c0-.945-.536-1.417-1.608-1.417-.496 0-1.02.08-1.573.24v5.077h-.864V16.86a5.536 5.536 0 0 1 2.533-.588c.776 0 1.36.164 1.752.492.6-.328 1.272-.492 2.017-.492zm6.852 0c.672 0 1.2.164 1.584.492.392.328.588.804.588 1.428v2.905c0 .576-.236.964-.708 1.164-.472.192-1.125.288-1.957.288-.632 0-1.176-.14-1.632-.42-.448-.28-.672-.748-.672-1.404 0-.712.196-1.228.588-1.549.392-.328.932-.492 1.62-.492.776 0 1.405.14 1.885.42v-.708c0-.896-.524-1.344-1.573-1.344-.344 0-.692.048-1.044.144-.352.096-.648.24-.888.432v-.864c.24-.152.564-.272.972-.36a5.962 5.962 0 0 1 1.236-.132zm-.289 5.509c.56 0 .965-.04 1.213-.12.248-.088.372-.26.372-.516V19.8a3.11 3.11 0 0 0-.756-.24 4.14 4.14 0 0 0-.9-.096c-.505 0-.893.096-1.165.288-.272.192-.408.472-.408.84 0 .416.16.72.48.912.32.184.708.276 1.164.276zm6.802-5.509c.8 0 1.465.26 1.992.78.529.512.793 1.336.793 2.473 0 .936-.248 1.672-.744 2.208-.496.536-1.2.804-2.113.804-.208 0-.448-.032-.72-.096a4.547 4.547 0 0 1-.768-.252v2.785h-.864v-7.514c0-.44.24-.744.72-.912.488-.176 1.056-.268 1.704-.276zm-.072 5.473c.632 0 1.112-.2 1.44-.6.336-.4.505-.94.505-1.62 0-.753-.136-1.349-.408-1.789-.273-.448-.765-.672-1.477-.672-.432 0-.8.052-1.104.156-.296.096-.444.228-.444.396v3.709c.48.28.976.42 1.488.42zm6.906-5.473c.8 0 1.464.26 1.992.78.528.512.792 1.336.792 2.473 0 .936-.248 1.672-.744 2.208-.496.536-1.2.804-2.113.804-.208 0-.448-.032-.72-.096a4.547 4.547 0 0 1-.768-.252v2.785H38.3v-7.514c0-.44.24-.744.72-.912.488-.176 1.056-.268 1.705-.276zm-.072 5.473c.632 0 1.112-.2 1.44-.6.336-.4.504-.94.504-1.62 0-.753-.136-1.349-.408-1.789-.272-.448-.764-.672-1.477-.672-.432 0-.8.052-1.104.156-.296.096-.444.228-.444.396v3.709c.48.28.976.42 1.489.42zm4.48-7.381h.96v.948h-.96v-.948zm.048 2.016h.864v5.99h-.864v-5.99zm2.836.48a5.536 5.536 0 0 1 2.532-.588c.84 0 1.444.184 1.812.552.377.368.565.916.565 1.644v3.901h-.865v-3.9c0-.945-.536-1.417-1.608-1.417-.496 0-1.02.08-1.572.24v5.077h-.864V16.86zm9.45-.576c.64 0 1.18.124 1.62.372.448.24.672.612.672 1.116v4.85c0 .591-.192 1.091-.576 1.5-.384.416-1.06.623-2.029.623-.272 0-.528-.023-.768-.072a6.636 6.636 0 0 1-.612-.131 6.494 6.494 0 0 0-.324-.073v-.816c.312.088.584.156.816.204.24.048.504.072.792.072.728 0 1.216-.12 1.465-.36.248-.24.372-.548.372-.924V22.2a5.263 5.263 0 0 1-.84.24c-.305.072-.56.108-.769.108-.904 0-1.588-.264-2.052-.792-.456-.536-.684-1.276-.684-2.22.008-1.225.292-2.073.852-2.545s1.248-.708 2.064-.708zm-2.005 3.253c0 .688.148 1.232.444 1.632.296.392.756.588 1.38.588.264 0 .537-.036.817-.108.288-.072.552-.176.792-.312V17.89c0-.312-.124-.524-.372-.636-.24-.12-.569-.18-.985-.18-.8 0-1.348.22-1.644.66-.288.44-.432 1.04-.432 1.8zm11.19 4.188c-.335-.608-.644-1.34-.924-2.196-.272-.864-.408-1.804-.408-2.82 0-1.017.136-1.957.408-2.821.28-.864.588-1.6.925-2.209h.912c-.296.497-.6 1.189-.912 2.077-.313.88-.469 1.864-.469 2.952 0 1.089.156 2.077.469 2.965.312.888.616 1.572.912 2.052h-.912zm5.206-7.453c.672 0 1.2.164 1.585.492.392.328.588.804.588 1.428v2.905c0 .576-.236.964-.709 1.164-.472.192-1.124.288-1.956.288-.632 0-1.176-.14-1.632-.42-.448-.28-.672-.748-.672-1.404 0-.712.196-1.228.588-1.549.392-.328.932-.492 1.62-.492.776 0 1.404.14 1.884.42v-.708c0-.896-.524-1.344-1.572-1.344-.344 0-.692.048-1.044.144-.352.096-.648.24-.888.432v-.864c.24-.152.564-.272.972-.36a5.962 5.962 0 0 1 1.236-.132zm-.288 5.509c.56 0 .964-.04 1.212-.12.248-.088.372-.26.372-.516V19.8a3.111 3.111 0 0 0-.756-.24 4.138 4.138 0 0 0-.9-.096c-.504 0-.892.096-1.164.288-.272.192-.408.472-.408.84 0 .416.16.72.48.912.32.184.708.276 1.164.276zm9.286-7.934v7.49c0 .408-.26.712-.78.912-.512.2-1.072.3-1.68.3a2.837 2.837 0 0 1-1.92-.708c-.544-.48-.82-1.328-.828-2.544 0-.945.227-1.68.684-2.209.464-.536 1.148-.804 2.052-.804.208 0 .464.036.768.108.312.064.592.144.84.24v-2.784h.864zm-.864 3.65a3.15 3.15 0 0 0-.792-.313 3.272 3.272 0 0 0-.816-.108c-.624 0-1.084.2-1.38.6-.296.392-.444.932-.444 1.62 0 .753.136 1.353.408 1.8.272.44.764.661 1.476.661.424 0 .788-.048 1.092-.144.304-.096.456-.216.456-.36v-3.757zm7.698-3.65v7.49c0 .408-.26.712-.78.912-.513.2-1.073.3-1.68.3a2.837 2.837 0 0 1-1.921-.708c-.544-.48-.82-1.328-.828-2.544 0-.945.228-1.68.684-2.209.464-.536 1.148-.804 2.052-.804.208 0 .464.036.768.108.312.064.593.144.84.24v-2.784h.865zm-.864 3.65a3.15 3.15 0 0 0-.793-.313 3.273 3.273 0 0 0-.816-.108c-.624 0-1.084.2-1.38.6-.296.392-.444.932-.444 1.62 0 .753.136 1.353.408 1.8.272.44.764.661 1.476.661.424 0 .788-.048 1.093-.144.303-.096.456-.216.456-.36v-3.757zm2.788-.637a8.944 8.944 0 0 1 1.2-.384 5.964 5.964 0 0 1 1.56-.204c.08 0 .209.024.385.072v.768a5.192 5.192 0 0 0-1.308.012c-.225.032-.549.084-.973.156v5.09h-.864v-5.51zm6.43-.588c.913 0 1.581.296 2.005.888.424.592.628 1.38.612 2.365h-4.368c0 .72.168 1.272.504 1.656.336.384.816.576 1.44.576.8 0 1.484-.172 2.052-.516v.888c-.584.28-1.284.42-2.1.42-.872 0-1.552-.268-2.04-.804-.489-.544-.733-1.336-.733-2.377 0-1.016.228-1.784.684-2.304.465-.528 1.113-.792 1.945-.792zm0 .792c-.527 0-.927.124-1.2.372-.272.24-.444.672-.516 1.296h3.421c-.04-.56-.2-.976-.48-1.248-.272-.28-.68-.42-1.224-.42zm5.928 5.485c-.408 0-.756-.04-1.044-.12a5.117 5.117 0 0 1-.948-.384v-.912c.408.232.74.396.996.492.264.088.576.132.936.132.4 0 .725-.088.973-.264.256-.176.384-.404.384-.684 0-.248-.076-.432-.228-.552-.152-.128-.392-.256-.721-.384l-.312-.132a10.565 10.565 0 0 1-1.068-.348 1.767 1.767 0 0 1-.66-.492c-.184-.225-.276-.529-.276-.913s.1-.704.3-.96c.2-.256.46-.444.78-.564.32-.128.656-.192 1.008-.192.32 0 .589.036.805.108.224.072.528.192.912.36v.864c-.4-.2-.708-.34-.924-.42a2.078 2.078 0 0 0-.745-.12c-.352 0-.652.072-.9.216-.248.136-.372.332-.372.588 0 .208.06.38.18.516.128.128.284.232.468.312.192.072.448.152.768.24.401.129.717.245.949.349.24.104.448.272.624.504.184.224.276.528.276.912 0 .408-.104.752-.312 1.032-.208.272-.48.476-.816.612a2.673 2.673 0 0 1-1.033.204zm5.474 0c-.408 0-.756-.04-1.044-.12a5.117 5.117 0 0 1-.948-.384v-.912c.408.232.74.396.996.492.264.088.576.132.936.132.4 0 .724-.088.972-.264.256-.176.384-.404.384-.684 0-.248-.076-.432-.228-.552-.152-.128-.392-.256-.72-.384l-.312-.132a10.565 10.565 0 0 1-1.068-.348 1.767 1.767 0 0 1-.66-.492c-.184-.225-.276-.529-.276-.913s.1-.704.3-.96c.2-.256.46-.444.78-.564.32-.128.656-.192 1.008-.192.32 0 .588.036.804.108.224.072.528.192.912.36v.864c-.4-.2-.708-.34-.924-.42a2.072 2.072 0 0 0-.744-.12c-.352 0-.652.072-.9.216-.248.136-.372.332-.372.588 0 .208.06.38.18.516.128.128.284.232.468.312.192.072.448.152.768.24.4.129.716.245.948.349.24.104.448.272.624.504.184.224.276.528.276.912 0 .408-.104.752-.312 1.032-.208.272-.48.476-.816.612a2.668 2.668 0 0 1-1.032.204zm7.827-5.1h4.62v.827h-4.62v-.828zm0 1.848h4.62v.84h-4.62v-.84zm7.713 1.548l3.925-1.704-3.925-1.693v-.96l4.933 2.244v.817l-4.933 2.244v-.948zm13.16 1.704c-.8 0-1.42-.204-1.86-.612-.432-.416-.648-1.004-.648-1.764v-3.793h.864v3.6c0 .609.132 1.057.396 1.345.264.28.68.42 1.248.42.56 0 .972-.14 1.236-.42.272-.288.408-.736.408-1.344v-3.601h.865v3.793c0 .76-.22 1.348-.66 1.764-.433.408-1.049.612-1.849.612zm4.43-8.185h.961v.948h-.961v-.948zm.049 2.016h.864v5.99h-.864v-5.99zm2.835.48a5.534 5.534 0 0 1 2.532-.588c.84 0 1.445.184 1.813.552.376.368.564.916.564 1.644v3.901h-.864v-3.9c0-.945-.537-1.417-1.609-1.417-.496 0-1.02.08-1.572.24v5.077h-.864V16.86zm8.717 5.605c-.44 0-.8-.132-1.08-.396-.28-.272-.42-.656-.42-1.152V17.17h-1.044v-.792h1.044v-1.692h.864v1.692h1.549v.792h-1.549v3.469c0 .352.056.608.168.768.112.16.32.24.624.24.297 0 .549-.048.757-.144v.816c-.112.04-.256.072-.432.096a2.578 2.578 0 0 1-.481.048zm2.296 1.26c.304-.504.612-1.196.924-2.076.312-.88.469-1.864.469-2.953 0-1.08-.161-2.064-.481-2.952-.312-.896-.616-1.584-.912-2.065h.924c.336.609.641 1.345.913 2.209.28.856.42 1.792.42 2.808 0 1.017-.14 1.957-.42 2.82-.272.865-.577 1.601-.913 2.21h-.924zm10.223-7.453c.8 0 1.465.26 1.993.78.528.512.792 1.336.792 2.473 0 .936-.248 1.672-.744 2.208-.496.536-1.201.804-2.113.804-.208 0-.448-.032-.72-.096a4.546 4.546 0 0 1-.768-.252v2.785h-.864v-7.514c0-.44.24-.744.72-.912.488-.176 1.056-.268 1.704-.276zm-.072 5.473c.632 0 1.112-.2 1.441-.6.336-.4.504-.94.504-1.62 0-.753-.136-1.349-.408-1.789-.272-.448-.765-.672-1.477-.672-.432 0-.8.052-1.104.156-.296.096-.444.228-.444.396v3.709c.48.28.976.42 1.488.42zm6.99.804c-.801 0-1.421-.204-1.861-.612-.432-.416-.648-1.004-.648-1.764v-3.793h.864v3.6c0 .609.132 1.057.396 1.345.264.28.68.42 1.249.42.56 0 .972-.14 1.236-.42.272-.288.408-.736.408-1.344v-3.601h.864v3.793c0 .76-.22 1.348-.66 1.764-.432.408-1.048.612-1.848.612zm6.902-6.265c.905 0 1.585.268 2.041.804.464.528.696 1.264.696 2.209-.008 1.216-.288 2.064-.84 2.544-.552.472-1.209.708-1.969.708-1.6 0-2.4-.4-2.4-1.2v-7.501h.864v2.784c.248-.096.524-.176.828-.24.312-.072.572-.108.78-.108zm-.192 5.473c.776 0 1.305-.22 1.585-.66.288-.44.432-1.04.432-1.8 0-.689-.148-1.229-.444-1.62-.296-.4-.757-.6-1.381-.6-.264 0-.54.035-.828.107-.28.072-.54.176-.78.312v3.649c0 .232.14.392.42.48.28.088.612.132.996.132zm4.553.612v-8.27h.864v8.27h-.864zm2.79-8.005h.96v.948h-.96v-.948zm.048 2.016h.864v5.99h-.864v-5.99zm5.344 6.085c-.793 0-1.461-.224-2.005-.672-.536-.456-.804-1.264-.804-2.425 0-1.152.268-1.956.804-2.412.544-.456 1.212-.684 2.005-.684.6 0 1.192.112 1.776.336v.828a4.373 4.373 0 0 0-1.68-.336c-.713 0-1.233.18-1.561.54-.32.36-.48.936-.48 1.729 0 .8.16 1.38.48 1.74.328.352.848.528 1.561.528a4.2 4.2 0 0 0 1.68-.336v.84a4.892 4.892 0 0 1-1.776.324zm9.388 0c-.792 0-1.46-.224-2.004-.672-.536-.456-.805-1.264-.805-2.425 0-1.152.269-1.956.805-2.412.544-.456 1.212-.684 2.004-.684.6 0 1.192.112 1.776.336v.828a4.373 4.373 0 0 0-1.68-.336c-.712 0-1.232.18-1.56.54-.32.36-.48.936-.48 1.729 0 .8.16 1.38.48 1.74.328.352.848.528 1.56.528a4.2 4.2 0 0 0 1.68-.336v.84a4.892 4.892 0 0 1-1.776.324zm5.859.084c-.92 0-1.612-.272-2.076-.816-.456-.544-.684-1.324-.684-2.34 0-1.033.232-1.809.696-2.329.472-.528 1.152-.792 2.04-.792.936 0 1.633.28 2.089.84.456.552.684 1.312.684 2.28 0 .993-.24 1.769-.72 2.329-.48.552-1.157.828-2.029.828zm-.012-.792c1.265 0 1.897-.788 1.897-2.364 0-.753-.148-1.329-.444-1.729-.296-.4-.781-.6-1.453-.6-1.256 0-1.884.776-1.884 2.329 0 1.576.628 2.364 1.884 2.364zm4.385-7.393h.96v.948h-.96v-.948zm.048 2.016h.864v5.99h-.864v-5.99zm2.835.48a5.541 5.541 0 0 1 2.533-.588c.84 0 1.444.184 1.812.552.376.368.564.916.564 1.644v3.901h-.864v-3.9c0-.945-.536-1.417-1.608-1.417-.496 0-1.02.08-1.572.24v5.077h-.865V16.86zm11.335 1.224c.376.168.696.416.96.744.264.32.396.745.396 1.273 0 .776-.252 1.348-.756 1.716-.504.368-1.221.552-2.149.552h-2.892v-8.005h2.652c1.777 0 2.665.716 2.665 2.148 0 .384-.064.676-.192.876a2.17 2.17 0 0 1-.408.468l-.276.228zm-3.577-.252h1.98c.488 0 .876-.084 1.164-.252.297-.168.445-.504.445-1.008 0-.52-.144-.88-.433-1.08-.28-.2-.708-.3-1.284-.3h-1.872v2.64zm2.1 3.733c.608 0 1.089-.104 1.441-.312.352-.216.528-.616.528-1.2 0-.576-.184-.953-.552-1.128-.361-.185-.845-.277-1.453-.277h-2.064v2.917h2.1zm7.069-5.293c.672 0 1.2.164 1.584.492.392.328.588.804.588 1.428v2.905c0 .576-.236.964-.708 1.164-.472.192-1.124.288-1.956.288-.632 0-1.177-.14-1.633-.42-.448-.28-.672-.748-.672-1.404 0-.712.196-1.228.588-1.549.392-.328.933-.492 1.621-.492.776 0 1.404.14 1.884.42v-.708c0-.896-.524-1.344-1.572-1.344-.344 0-.692.048-1.044.144a2.42 2.42 0 0 0-.889.432v-.864c.24-.152.564-.272.973-.36a5.96 5.96 0 0 1 1.236-.132zm-.288 5.509c.56 0 .964-.04 1.212-.12.248-.088.372-.26.372-.516V19.8a3.11 3.11 0 0 0-.756-.24 4.138 4.138 0 0 0-.9-.096c-.504 0-.892.096-1.165.288-.272.192-.408.472-.408.84 0 .416.16.72.48.912.321.184.709.276 1.165.276zm4.377.588v-8.27h.864v8.27h-.864zm5.346-6.097c.672 0 1.2.164 1.584.492.392.328.588.804.588 1.428v2.905c0 .576-.236.964-.708 1.164-.472.192-1.124.288-1.956.288-.632 0-1.176-.14-1.632-.42-.448-.28-.672-.748-.672-1.404 0-.712.196-1.228.588-1.549.392-.328.932-.492 1.62-.492.776 0 1.404.14 1.884.42v-.708c0-.896-.524-1.344-1.572-1.344-.344 0-.692.048-1.044.144-.352.096-.648.24-.888.432v-.864c.24-.152.564-.272.972-.36a5.96 5.96 0 0 1 1.236-.132zm-.288 5.509c.56 0 .964-.04 1.212-.12.248-.088.372-.26.372-.516V19.8a3.11 3.11 0 0 0-.756-.24 4.138 4.138 0 0 0-.9-.096c-.504 0-.892.096-1.164.288-.272.192-.408.472-.408.84 0 .416.16.72.48.912.32.184.708.276 1.164.276zm4.377-4.92a5.538 5.538 0 0 1 2.533-.589c.84 0 1.444.184 1.812.552.376.368.564.916.564 1.644v3.901h-.864v-3.9c0-.945-.536-1.417-1.608-1.417-.496 0-1.02.08-1.572.24v5.077h-.865V16.86zm9.342 5.604c-.792 0-1.46-.224-2.004-.672-.536-.456-.804-1.264-.804-2.425 0-1.152.268-1.956.804-2.412.544-.456 1.212-.684 2.004-.684.6 0 1.192.112 1.776.336v.828a4.373 4.373 0 0 0-1.68-.336c-.712 0-1.232.18-1.56.54-.32.36-.48.936-.48 1.729 0 .8.16 1.38.48 1.74.328.352.848.528 1.56.528a4.2 4.2 0 0 0 1.68-.336v.84a4.892 4.892 0 0 1-1.776.324zm5.727-6.193c.913 0 1.581.296 2.005.888.424.592.628 1.38.612 2.365h-4.369c0 .72.168 1.272.504 1.656.336.384.816.576 1.44.576.801 0 1.485-.172 2.053-.516v.888c-.584.28-1.284.42-2.101.42-.872 0-1.552-.268-2.04-.804-.488-.544-.732-1.336-.732-2.377 0-1.016.228-1.784.684-2.304.464-.528 1.112-.792 1.944-.792zm0 .792c-.528 0-.928.124-1.2.372-.272.24-.444.672-.516 1.296h3.421c-.04-.56-.2-.976-.48-1.248-.272-.28-.681-.42-1.225-.42zm7.584 5.425c-1.184 0-2.08-.344-2.688-1.032-.6-.696-.9-1.724-.9-3.085 0-1.36.3-2.384.9-3.072.608-.696 1.504-1.044 2.688-1.044 1.192 0 2.089.348 2.689 1.044.608.688.912 1.712.912 3.072s-.304 2.389-.912 3.085c-.6.688-1.497 1.032-2.689 1.032zm0-.816c.944 0 1.633-.264 2.065-.792.432-.528.648-1.364.648-2.509 0-1.136-.216-1.968-.648-2.496-.432-.536-1.121-.804-2.065-.804-.936 0-1.62.268-2.052.804-.432.528-.648 1.36-.648 2.496 0 1.145.216 1.98.648 2.509.432.528 1.116.792 2.052.792zm5.83-4.5h-1.032v-.793h1.032v-.324c0-.664.116-1.156.348-1.476.232-.328.48-.528.745-.6.272-.08.552-.12.84-.12.216 0 .408.024.576.072v.768a2.225 2.225 0 0 0-.432-.048c-.256 0-.464.024-.624.072-.16.048-.3.172-.42.372-.113.2-.169.516-.169.948v.336h1.645v.792h-1.645v5.197h-.864v-5.197zm4.249-.18h1.2v1.2h-1.2v-1.2zm-.012 4.368h1.104l-1.008 2.352h-.864l.768-2.352zm-260.18 8.913c.913 0 1.581.297 2.005.889.424.592.628 1.38.612 2.364H14.8c0 .72.168 1.272.505 1.656.336.384.816.576 1.44.576.8 0 1.484-.172 2.052-.516v.889c-.584.28-1.284.42-2.1.42-.872 0-1.552-.268-2.04-.805-.489-.544-.733-1.336-.733-2.376 0-1.016.228-1.784.684-2.304.464-.528 1.113-.793 1.945-.793zm0 .793c-.527 0-.927.124-1.2.372-.271.24-.444.672-.516 1.296h3.421c-.04-.56-.2-.976-.48-1.248-.272-.28-.68-.42-1.224-.42zm9.227-.684l-2.544 5.989h-.877l-2.532-5.99h.924l2.125 5.041 2.04-5.04h.864zm3.292-.109c.912 0 1.58.297 2.004.889.424.592.628 1.38.612 2.364h-4.369c0 .72.168 1.272.504 1.656.337.384.817.576 1.44.576.8 0 1.485-.172 2.053-.516v.889c-.584.28-1.284.42-2.1.42-.872 0-1.553-.268-2.04-.805-.489-.544-.733-1.336-.733-2.376 0-1.016.228-1.784.684-2.304.464-.528 1.112-.793 1.945-.793zm0 .793c-.528 0-.929.124-1.2.372-.273.24-.445.672-.517 1.296h3.421c-.04-.56-.2-.976-.48-1.248-.272-.28-.68-.42-1.224-.42zm4.235-.204a5.537 5.537 0 0 1 2.532-.588c.84 0 1.445.184 1.813.552.376.368.564.916.564 1.644v3.9h-.864v-3.9c0-.944-.536-1.416-1.609-1.416-.496 0-1.02.08-1.572.24v5.077h-.864v-5.51zm8.718 5.605c-.44 0-.8-.132-1.08-.396-.28-.273-.42-.657-.42-1.153v-3.744h-1.045v-.792h1.044v-1.693h.864v1.693h1.549v.792h-1.549v3.468c0 .352.056.608.169.768.111.16.32.24.624.24.296 0 .548-.047.756-.143v.816c-.112.04-.256.072-.432.096a2.568 2.568 0 0 1-.48.048zm9.365 0c-1.232 0-2.16-.344-2.784-1.032-.616-.689-.925-1.713-.925-3.073 0-1.36.309-2.385.925-3.073.624-.688 1.552-1.032 2.784-1.032.816 0 1.628.196 2.436.588v.828c-.752-.4-1.532-.6-2.34-.6-1.008 0-1.744.264-2.208.793-.464.528-.696 1.36-.696 2.496 0 1.144.228 1.98.684 2.508.464.52 1.204.78 2.22.78.848 0 1.628-.195 2.34-.588v.829c-.816.384-1.628.576-2.436.576zm6.518.084c-.92 0-1.612-.272-2.076-.817-.456-.544-.684-1.324-.684-2.34 0-1.032.232-1.808.696-2.328.472-.528 1.152-.793 2.04-.793.936 0 1.632.28 2.088.84.457.553.685 1.313.685 2.281 0 .992-.24 1.768-.72 2.328-.48.553-1.157.829-2.029.829zm-.012-.793c1.264 0 1.896-.788 1.896-2.364 0-.752-.148-1.328-.444-1.728-.296-.4-.78-.6-1.452-.6-1.256 0-1.884.776-1.884 2.328 0 1.576.628 2.364 1.884 2.364zm4.385-7.393h.96v.948h-.96v-.948zm.048 2.017h.864v5.989h-.864v-5.99zm2.835.48a5.537 5.537 0 0 1 2.533-.588c.84 0 1.444.184 1.812.552.376.368.564.916.564 1.644v3.9h-.864v-3.9c0-.944-.536-1.416-1.608-1.416-.496 0-1.02.08-1.572.24v5.077h-.865v-5.51zm8.946-1.68h-2.833v-.817h6.518v.816h-2.82v7.19h-.865v-7.19zm4.041 1.68a8.953 8.953 0 0 1 1.2-.384 5.963 5.963 0 0 1 1.56-.205c.08 0 .209.024.385.073v.768a5.192 5.192 0 0 0-1.308.012c-.225.032-.549.084-.973.156v5.089h-.864v-5.51zm7.08-.588c.673 0 1.201.164 1.585.492.392.328.588.804.588 1.428v2.904c0 .577-.236.965-.708 1.165-.472.192-1.124.288-1.956.288-.632 0-1.177-.14-1.633-.42-.448-.28-.672-.748-.672-1.405 0-.712.196-1.228.588-1.548.392-.328.932-.492 1.62-.492.777 0 1.405.14 1.885.42v-.708c0-.896-.524-1.344-1.572-1.344-.344 0-.692.048-1.044.144-.353.096-.649.24-.889.432v-.864c.24-.152.564-.272.972-.36a5.956 5.956 0 0 1 1.237-.133zm-.287 5.508c.56 0 .964-.04 1.212-.12.248-.087.372-.26.372-.516v-1.344a3.11 3.11 0 0 0-.756-.24 4.14 4.14 0 0 0-.9-.096c-.504 0-.892.096-1.164.288-.273.192-.409.472-.409.84 0 .416.16.72.48.913.32.184.709.276 1.165.276zm4.377-4.92a5.537 5.537 0 0 1 2.533-.588c.84 0 1.444.184 1.812.552.376.368.564.916.564 1.644v3.9h-.864v-3.9c0-.944-.536-1.416-1.608-1.416-.497 0-1.02.08-1.573.24v5.077h-.864v-5.51zm8.526 5.689c-.408 0-.757-.04-1.045-.12a5.132 5.132 0 0 1-.948-.384v-.913c.408.233.74.397.997.492.264.089.576.133.936.133.4 0 .724-.089.972-.264.256-.176.384-.405.384-.685 0-.248-.076-.432-.228-.552-.152-.128-.392-.256-.72-.384l-.312-.132a10.59 10.59 0 0 1-1.069-.348 1.765 1.765 0 0 1-.66-.492c-.184-.224-.276-.528-.276-.912s.1-.704.3-.96c.2-.256.46-.444.78-.564a2.69 2.69 0 0 1 1.009-.193c.32 0 .588.037.804.109.224.072.528.192.912.36v.864c-.4-.2-.708-.34-.924-.42a2.073 2.073 0 0 0-.744-.12c-.352 0-.652.072-.9.216-.249.136-.373.332-.373.588 0 .208.06.38.18.516.128.128.284.232.469.312.192.072.448.152.768.24.4.128.716.244.948.348.24.104.448.272.624.504.184.224.276.528.276.912 0 .408-.104.753-.312 1.032-.208.273-.48.477-.816.613a2.667 2.667 0 0 1-1.032.204zm4.333-5.377h-1.032v-.792h1.032v-.325c0-.664.116-1.156.348-1.476.232-.328.48-.528.744-.6.272-.08.552-.12.84-.12.216 0 .409.024.577.072v.768a2.227 2.227 0 0 0-.433-.048c-.256 0-.464.024-.624.072-.16.048-.3.172-.42.372-.112.2-.168.516-.168.948v.337h1.645v.792h-1.645v5.197h-.864v-5.197zm5.855-.9c.912 0 1.581.296 2.005.888.424.592.628 1.38.612 2.364h-4.369c0 .72.168 1.272.504 1.656.336.384.816.576 1.44.576.8 0 1.485-.172 2.053-.516v.889c-.584.28-1.285.42-2.101.42-.872 0-1.552-.268-2.04-.805-.488-.544-.732-1.336-.732-2.376 0-1.016.228-1.784.684-2.304.464-.528 1.112-.793 1.944-.793zm0 .792c-.528 0-.928.124-1.2.372-.272.24-.444.672-.516 1.296h3.421c-.04-.56-.2-.976-.48-1.248-.273-.28-.681-.42-1.225-.42zm4.236-.204a8.947 8.947 0 0 1 1.2-.384 5.962 5.962 0 0 1 1.56-.205c.08 0 .208.024.384.073v.768a5.19 5.19 0 0 0-1.308.012c-.224.032-.548.084-.972.156v5.089h-.864v-5.51zm6.012 6.865c-.336-.608-.644-1.34-.924-2.196-.272-.865-.408-1.805-.408-2.821 0-1.016.136-1.956.408-2.82.28-.865.588-1.6.924-2.209h.912c-.296.496-.6 1.188-.912 2.076-.312.88-.468 1.865-.468 2.953 0 1.088.156 2.076.468 2.965.312.888.616 1.572.912 2.052h-.912zm5.206-7.453c.672 0 1.2.164 1.584.492.392.328.588.804.588 1.428v2.904c0 .577-.236.965-.708 1.165-.472.192-1.124.288-1.956.288-.632 0-1.177-.14-1.633-.42-.448-.28-.672-.748-.672-1.405 0-.712.196-1.228.588-1.548.392-.328.933-.492 1.621-.492.776 0 1.404.14 1.884.42v-.708c0-.896-.524-1.344-1.572-1.344-.344 0-.692.048-1.044.144a2.42 2.42 0 0 0-.889.432v-.864c.24-.152.564-.272.973-.36a5.953 5.953 0 0 1 1.236-.133zm-.288 5.508c.56 0 .964-.04 1.212-.12.248-.087.372-.26.372-.516v-1.344a3.11 3.11 0 0 0-.756-.24 4.138 4.138 0 0 0-.9-.096c-.504 0-.892.096-1.165.288-.272.192-.408.472-.408.84 0 .416.16.72.48.913.321.184.709.276 1.165.276zm9.286-7.933v7.49c0 .407-.26.712-.78.912-.512.2-1.072.3-1.681.3a2.836 2.836 0 0 1-1.92-.708c-.544-.48-.82-1.329-.828-2.545 0-.944.228-1.68.684-2.208.464-.536 1.148-.805 2.052-.805.209 0 .465.037.769.109.312.064.592.144.84.24v-2.785h.864zm-.864 3.649a3.141 3.141 0 0 0-.792-.312 3.273 3.273 0 0 0-.817-.108c-.624 0-1.084.2-1.38.6-.296.392-.444.932-.444 1.62 0 .752.136 1.352.408 1.8.272.44.764.66 1.476.66.425 0 .789-.047 1.093-.144.304-.095.456-.215.456-.36v-3.756zm7.697-3.649v7.49c0 .407-.26.712-.78.912-.512.2-1.072.3-1.68.3a2.84 2.84 0 0 1-1.921-.708c-.544-.48-.82-1.329-.828-2.545 0-.944.228-1.68.684-2.208.464-.536 1.149-.805 2.053-.805.208 0 .464.037.768.109.312.064.592.144.84.24v-2.785h.864zm-.864 3.649a3.141 3.141 0 0 0-.792-.312 3.271 3.271 0 0 0-.816-.108c-.624 0-1.084.2-1.38.6-.297.392-.445.932-.445 1.62 0 .752.136 1.352.408 1.8.273.44.765.66 1.477.66a3.65 3.65 0 0 0 1.092-.144c.304-.095.456-.215.456-.36v-3.756zm2.789-.636a8.947 8.947 0 0 1 1.2-.384 5.962 5.962 0 0 1 1.56-.205c.08 0 .208.024.384.073v.768a5.19 5.19 0 0 0-1.308.012c-.224.032-.548.084-.972.156v5.089h-.864v-5.51zm6.43-.588c.912 0 1.581.296 2.005.888.424.592.628 1.38.612 2.364h-4.369c0 .72.168 1.272.504 1.656.336.384.816.576 1.44.576.801 0 1.485-.172 2.053-.516v.889c-.584.28-1.284.42-2.101.42-.872 0-1.552-.268-2.04-.805-.488-.544-.732-1.336-.732-2.376 0-1.016.228-1.784.684-2.304.464-.528 1.112-.793 1.944-.793zm0 .792c-.528 0-.928.124-1.2.372-.272.24-.444.672-.516 1.296h3.421c-.04-.56-.2-.976-.48-1.248-.273-.28-.681-.42-1.225-.42zm5.928 5.485c-.408 0-.756-.04-1.044-.12a5.131 5.131 0 0 1-.948-.384v-.913a7.4 7.4 0 0 0 .996.492c.264.089.576.133.936.133.4 0 .724-.089.972-.264.256-.176.384-.405.384-.685 0-.248-.076-.432-.228-.552-.152-.128-.392-.256-.72-.384l-.312-.132a10.587 10.587 0 0 1-1.068-.348 1.764 1.764 0 0 1-.66-.492c-.184-.224-.276-.528-.276-.912s.1-.704.3-.96c.2-.256.46-.444.78-.564a2.69 2.69 0 0 1 1.008-.193c.32 0 .588.037.804.109.224.072.528.192.912.36v.864c-.4-.2-.708-.34-.924-.42a2.072 2.072 0 0 0-.744-.12c-.352 0-.652.072-.9.216-.248.136-.372.332-.372.588 0 .208.06.38.18.516.128.128.284.232.468.312.192.072.448.152.768.24.4.128.716.244.948.348.24.104.448.272.624.504.184.224.276.528.276.912 0 .408-.104.753-.312 1.032-.208.273-.48.477-.816.613a2.666 2.666 0 0 1-1.032.204zm5.474 0c-.409 0-.757-.04-1.045-.12a5.131 5.131 0 0 1-.948-.384v-.913a7.4 7.4 0 0 0 .996.492c.264.089.576.133.937.133.4 0 .724-.089.972-.264.256-.176.384-.405.384-.685 0-.248-.076-.432-.228-.552-.152-.128-.392-.256-.72-.384l-.312-.132a10.535 10.535 0 0 1-1.069-.348 1.764 1.764 0 0 1-.66-.492c-.184-.224-.276-.528-.276-.912s.1-.704.3-.96c.2-.256.46-.444.78-.564.32-.128.657-.193 1.009-.193.32 0 .588.037.804.109.224.072.528.192.912.36v.864c-.4-.2-.708-.34-.924-.42a2.072 2.072 0 0 0-.744-.12c-.352 0-.653.072-.901.216-.248.136-.372.332-.372.588 0 .208.06.38.18.516.128.128.284.232.468.312.193.072.449.152.769.24.4.128.716.244.948.348.24.104.448.272.624.504.184.224.276.528.276.912 0 .408-.104.753-.312 1.032-.208.273-.48.477-.816.613a2.666 2.666 0 0 1-1.032.204zm8.954 0c-.408 0-.756-.04-1.044-.12a5.131 5.131 0 0 1-.948-.384v-.913a7.4 7.4 0 0 0 .996.492c.264.089.576.133.936.133.4 0 .724-.089.972-.264.257-.176.385-.405.385-.685 0-.248-.076-.432-.228-.552-.153-.128-.393-.256-.721-.384l-.312-.132a10.587 10.587 0 0 1-1.068-.348 1.764 1.764 0 0 1-.66-.492c-.184-.224-.276-.528-.276-.912s.1-.704.3-.96c.2-.256.46-.444.78-.564a2.69 2.69 0 0 1 1.008-.193c.32 0 .588.037.804.109.225.072.529.192.913.36v.864c-.4-.2-.708-.34-.925-.42a2.072 2.072 0 0 0-.744-.12c-.352 0-.652.072-.9.216-.248.136-.372.332-.372.588 0 .208.06.38.18.516.128.128.284.232.468.312.192.072.448.152.768.24.4.128.717.244.949.348.24.104.448.272.624.504.184.224.276.528.276.912 0 .408-.104.753-.312 1.032-.208.273-.48.477-.816.613a2.675 2.675 0 0 1-1.033.204zm6.11-6.278c.912 0 1.58.297 2.004.889.425.592.629 1.38.613 2.364h-4.369c0 .72.168 1.272.504 1.656.336.384.816.576 1.44.576.8 0 1.484-.172 2.053-.516v.889c-.585.28-1.285.42-2.101.42-.872 0-1.552-.268-2.04-.805-.488-.544-.732-1.336-.732-2.376 0-1.016.228-1.784.684-2.304.464-.528 1.112-.793 1.944-.793zm0 .793c-.528 0-.928.124-1.2.372-.272.24-.444.672-.516 1.296h3.42c-.04-.56-.2-.976-.48-1.248-.272-.28-.68-.42-1.224-.42zm4.235-.204a5.542 5.542 0 0 1 2.533-.588c.84 0 1.444.184 1.812.552.376.368.564.916.564 1.644v3.9h-.864v-3.9c0-.944-.536-1.416-1.608-1.416-.496 0-1.02.08-1.572.24v5.077h-.865v-5.51zm11.743-3.013v7.49c0 .407-.261.712-.781.912-.512.2-1.072.3-1.68.3a2.836 2.836 0 0 1-1.92-.708c-.544-.48-.82-1.329-.828-2.545 0-.944.228-1.68.684-2.208.464-.536 1.148-.805 2.052-.805.208 0 .464.037.768.109.312.064.592.144.84.24v-2.785h.865zm-.865 3.649a3.141 3.141 0 0 0-.792-.312 3.271 3.271 0 0 0-.816-.108c-.624 0-1.084.2-1.38.6-.296.392-.444.932-.444 1.62 0 .752.136 1.352.408 1.8.272.44.764.66 1.476.66a3.65 3.65 0 0 0 1.092-.144c.304-.095.456-.215.456-.36v-3.756zm5.117-1.225c.913 0 1.581.297 2.005.889.424.592.628 1.38.612 2.364h-4.369c0 .72.168 1.272.504 1.656.336.384.816.576 1.44.576.801 0 1.485-.172 2.053-.516v.889c-.584.28-1.284.42-2.101.42-.872 0-1.552-.268-2.04-.805-.488-.544-.732-1.336-.732-2.376 0-1.016.228-1.784.684-2.304.464-.528 1.112-.793 1.944-.793zm0 .793c-.528 0-.928.124-1.2.372-.272.24-.444.672-.516 1.296h3.421c-.04-.56-.2-.976-.48-1.248-.272-.28-.681-.42-1.225-.42zm4.236-.204a8.947 8.947 0 0 1 1.2-.384 5.962 5.962 0 0 1 1.56-.205c.08 0 .208.024.384.073v.768a5.19 5.19 0 0 0-1.308.012c-.224.032-.548.084-.972.156v5.089h-.864v-5.51zm4.438 4.5h.984l-1.008 2.353h-.865l.889-2.353zm8.983-5.089c.672 0 1.201.165 1.585.493.392.328.588.804.588 1.428v2.904c0 .577-.236.965-.708 1.165-.472.192-1.125.288-1.957.288-.632 0-1.176-.14-1.632-.42-.448-.28-.672-.748-.672-1.405 0-.712.196-1.228.588-1.548.392-.328.932-.492 1.62-.492.776 0 1.405.14 1.885.42v-.708c0-.896-.525-1.344-1.573-1.344-.344 0-.692.048-1.044.144-.352.096-.648.24-.888.432v-.864c.24-.152.564-.272.972-.36a5.953 5.953 0 0 1 1.236-.133zm-.288 5.51c.56 0 .964-.04 1.213-.12.248-.088.372-.26.372-.517v-1.344a3.104 3.104 0 0 0-.757-.24 4.138 4.138 0 0 0-.9-.096c-.504 0-.892.096-1.164.288-.272.192-.408.472-.408.84 0 .416.16.72.48.913.32.184.708.276 1.164.276zm9.287-7.934v7.49c0 .407-.261.712-.781.912-.512.2-1.072.3-1.68.3a2.836 2.836 0 0 1-1.92-.708c-.544-.48-.82-1.329-.828-2.545 0-.944.228-1.68.684-2.208.464-.536 1.148-.805 2.052-.805.208 0 .464.037.768.109.312.064.592.144.84.24v-2.785h.865zm-.865 3.649a3.141 3.141 0 0 0-.792-.312 3.271 3.271 0 0 0-.816-.108c-.624 0-1.084.2-1.38.6-.296.392-.444.932-.444 1.62 0 .752.136 1.352.408 1.8.272.44.764.66 1.476.66a3.65 3.65 0 0 0 1.092-.144c.304-.095.456-.215.456-.36v-3.756zm7.698-3.649v7.49c0 .407-.26.712-.78.912-.512.2-1.073.3-1.681.3a2.836 2.836 0 0 1-1.92-.708c-.544-.48-.82-1.329-.828-2.545 0-.944.228-1.68.684-2.208.464-.536 1.148-.805 2.052-.805.208 0 .464.037.768.109.313.064.593.144.841.24v-2.785h.864zm-.864 3.649a3.141 3.141 0 0 0-.792-.312 3.285 3.285 0 0 0-.817-.108c-.624 0-1.084.2-1.38.6-.296.392-.444.932-.444 1.62 0 .752.136 1.352.408 1.8.272.44.764.66 1.476.66.424 0 .789-.047 1.093-.144.304-.095.456-.215.456-.36v-3.756zm2.788-.636a8.947 8.947 0 0 1 1.2-.384 5.97 5.97 0 0 1 1.561-.205c.08 0 .208.024.384.073v.768a5.19 5.19 0 0 0-1.308.012c-.225.032-.549.084-.973.156v5.089h-.864v-5.51zm6.431-.588c.912 0 1.58.296 2.004.888.424.592.628 1.38.612 2.364h-4.368c0 .72.168 1.272.504 1.656.336.384.816.576 1.44.576.8 0 1.484-.172 2.052-.516v.889c-.584.28-1.284.42-2.1.42-.872 0-1.552-.268-2.04-.805-.489-.544-.733-1.336-.733-2.376 0-1.016.228-1.784.685-2.304.464-.528 1.112-.793 1.944-.793zm0 .792c-.528 0-.928.124-1.2.372-.272.24-.444.672-.516 1.296h3.42c-.04-.56-.2-.976-.48-1.248-.272-.28-.68-.42-1.224-.42zm5.928 5.485c-.409 0-.757-.04-1.045-.12a5.131 5.131 0 0 1-.948-.384v-.913a7.4 7.4 0 0 0 .996.492c.264.089.576.133.936.133.401 0 .725-.089.973-.264.256-.176.384-.405.384-.685 0-.248-.076-.432-.228-.552-.152-.128-.392-.256-.72-.384l-.312-.132a10.535 10.535 0 0 1-1.069-.348 1.764 1.764 0 0 1-.66-.492c-.184-.224-.276-.528-.276-.912s.1-.704.3-.96c.2-.256.46-.444.78-.564a2.69 2.69 0 0 1 1.009-.193c.32 0 .588.037.804.109.224.072.528.192.912.36v.864c-.4-.2-.708-.34-.924-.42a2.072 2.072 0 0 0-.744-.12c-.353 0-.653.072-.901.216-.248.136-.372.332-.372.588 0 .208.06.38.18.516.128.128.284.232.468.312.192.072.449.152.769.24.4.128.716.244.948.348.24.104.448.272.624.504.184.224.276.528.276.912 0 .408-.104.753-.312 1.032-.208.273-.48.477-.816.613a2.666 2.666 0 0 1-1.032.204zm5.473 0c-.408 0-.756-.04-1.044-.12a5.131 5.131 0 0 1-.948-.384v-.913a7.4 7.4 0 0 0 .996.492c.264.089.576.133.936.133.4 0 .724-.089.972-.264.256-.176.384-.405.384-.685 0-.248-.076-.432-.228-.552-.152-.128-.392-.256-.72-.384l-.312-.132a10.587 10.587 0 0 1-1.068-.348 1.764 1.764 0 0 1-.66-.492c-.184-.224-.276-.528-.276-.912s.1-.704.3-.96c.2-.256.46-.444.78-.564a2.69 2.69 0 0 1 1.008-.193c.32 0 .588.037.804.109.224.072.528.192.912.36v.864c-.4-.2-.708-.34-.924-.42a2.072 2.072 0 0 0-.744-.12c-.352 0-.652.072-.9.216-.248.136-.372.332-.372.588 0 .208.06.38.18.516.128.128.284.232.468.312.192.072.448.152.768.24.4.128.716.244.948.348.24.104.448.272.625.504.184.224.276.528.276.912 0 .408-.104.753-.313 1.032-.208.273-.48.477-.816.613a2.666 2.666 0 0 1-1.032.204zm7.263-5.69a8.947 8.947 0 0 1 1.2-.383 5.962 5.962 0 0 1 1.56-.205c.08 0 .208.024.384.073v.768a5.19 5.19 0 0 0-1.308.012c-.224.032-.548.084-.972.156v5.089h-.864v-5.51zm6.43-.588c.913 0 1.581.297 2.005.889.424.592.628 1.38.612 2.364h-4.369c0 .72.168 1.272.504 1.656.336.384.816.576 1.44.576.801 0 1.485-.172 2.053-.516v.889c-.584.28-1.284.42-2.101.42-.872 0-1.552-.268-2.04-.805-.488-.544-.732-1.336-.732-2.376 0-1.016.228-1.784.684-2.304.464-.528 1.112-.793 1.944-.793zm0 .793c-.528 0-.928.124-1.2.372-.272.24-.444.672-.516 1.296h3.421c-.04-.56-.2-.976-.48-1.248-.272-.28-.681-.42-1.225-.42zm6.744 5.4c-.792 0-1.46-.223-2.004-.672-.536-.455-.804-1.264-.804-2.424 0-1.152.268-1.956.804-2.412.544-.456 1.212-.684 2.004-.684.6 0 1.192.112 1.776.336v.828a4.371 4.371 0 0 0-1.68-.336c-.712 0-1.232.18-1.56.54-.32.36-.48.936-.48 1.728 0 .8.16 1.38.48 1.74.328.352.848.529 1.56.529a4.2 4.2 0 0 0 1.68-.337v.84a4.892 4.892 0 0 1-1.776.325zm5.727-6.193c.913 0 1.581.297 2.005.889.424.592.628 1.38.612 2.364h-4.369c0 .72.168 1.272.504 1.656.336.384.816.576 1.44.576.801 0 1.485-.172 2.053-.516v.889c-.584.28-1.284.42-2.101.42-.872 0-1.552-.268-2.04-.805-.488-.544-.732-1.336-.732-2.376 0-1.016.228-1.784.684-2.304.464-.528 1.112-.793 1.944-.793zm0 .793c-.528 0-.928.124-1.2.372-.272.24-.444.672-.516 1.296h3.421c-.04-.56-.2-.976-.48-1.248-.272-.28-.681-.42-1.225-.42zm4.236-2.7h.96v.947h-.96v-.948zm.048 2.016h.864v5.989h-.864v-5.99zm8.248 0l-2.544 5.989h-.877l-2.532-5.99h.924l2.124 5.041 2.041-5.04h.864zm3.292-.109c.912 0 1.58.297 2.004.889.424.592.628 1.38.612 2.364h-4.369c0 .72.168 1.272.504 1.656.336.384.816.576 1.441.576.8 0 1.484-.172 2.052-.516v.889c-.584.28-1.284.42-2.1.42-.873 0-1.553-.268-2.041-.805-.488-.544-.732-1.336-.732-2.376 0-1.016.228-1.784.684-2.304.464-.528 1.112-.793 1.945-.793zm0 .793c-.529 0-.929.124-1.201.372-.272.24-.444.672-.516 1.296h3.421c-.04-.56-.2-.976-.48-1.248-.272-.28-.68-.42-1.224-.42zm4.235-.204a8.947 8.947 0 0 1 1.2-.384 5.962 5.962 0 0 1 1.56-.205c.08 0 .208.024.384.073v.768a5.19 5.19 0 0 0-1.308.012c-.224.032-.548.084-.972.156v5.089h-.864v-5.51zm4.344 6.865c.304-.504.612-1.196.924-2.076.312-.88.468-1.865.468-2.953 0-1.08-.16-2.064-.48-2.953-.312-.896-.616-1.584-.912-2.064h.924c.336.608.64 1.344.912 2.209.28.856.42 1.792.42 2.808 0 1.016-.14 1.956-.42 2.82-.272.865-.576 1.6-.912 2.209h-.924zm4.618-6.733h1.2v1.2h-1.2v-1.2zm-.012 4.368h1.104l-1.008 2.353h-.865l.769-2.353zM7.814 59.18H6.782v-.792h1.032v-.324c0-.665.116-1.157.348-1.477.232-.328.48-.528.744-.6.272-.08.553-.12.84-.12.217 0 .409.024.577.072v.768a2.226 2.226 0 0 0-.432-.048c-.256 0-.464.024-.625.072-.16.048-.3.172-.42.372-.112.2-.168.517-.168.949v.336h1.645v.792H8.678v5.197h-.864v-5.197zm6.457 5.377c-.8 0-1.42-.204-1.86-.612-.432-.416-.648-1.005-.648-1.765v-3.792h.864v3.6c0 .608.132 1.056.396 1.345.264.28.68.42 1.248.42.56 0 .973-.14 1.237-.42.272-.288.408-.737.408-1.345v-3.6h.864v3.792c0 .76-.22 1.349-.66 1.765-.432.408-1.049.612-1.849.612zm4.43-5.69a5.536 5.536 0 0 1 2.533-.587c.84 0 1.444.184 1.813.552.376.368.564.916.564 1.644v3.9h-.865v-3.9c0-.944-.536-1.416-1.608-1.416-.496 0-1.02.08-1.572.24v5.077h-.864v-5.51zm9.342 5.606c-.792 0-1.46-.224-2.004-.672-.536-.456-.804-1.265-.804-2.425 0-1.152.268-1.956.804-2.412.544-.456 1.212-.684 2.004-.684.6 0 1.193.112 1.777.336v.828a4.373 4.373 0 0 0-1.68-.336c-.713 0-1.233.18-1.56.54-.32.36-.48.936-.48 1.728 0 .8.16 1.38.48 1.74.327.353.847.529 1.56.529.6 0 1.16-.112 1.68-.336v.84a4.892 4.892 0 0 1-1.777.324zm5.284 0c-.44 0-.8-.132-1.08-.396-.28-.272-.42-.656-.42-1.152v-3.745h-1.045v-.792h1.044v-1.693h.864v1.693h1.549v.792H32.69v3.468c0 .352.055.609.168.769.112.16.32.24.624.24.296 0 .548-.048.756-.144v.816c-.112.04-.256.072-.432.096a2.568 2.568 0 0 1-.48.048zm2.476-8.102h.96v.949h-.96v-.949zm.047 2.017h.865v5.989h-.865v-5.99zm5.296 6.169c-.92 0-1.612-.272-2.076-.816-.456-.544-.684-1.325-.684-2.34 0-1.033.232-1.81.696-2.33.472-.527 1.152-.791 2.04-.791.936 0 1.633.28 2.089.84.456.552.684 1.312.684 2.28 0 .992-.24 1.768-.72 2.329-.48.552-1.157.828-2.029.828zm-.012-.792c1.264 0 1.897-.789 1.897-2.365 0-.752-.148-1.328-.444-1.728-.297-.4-.78-.6-1.453-.6-1.256 0-1.884.776-1.884 2.328 0 1.576.628 2.365 1.884 2.365zm4.385-4.897a5.536 5.536 0 0 1 2.533-.588c.84 0 1.444.184 1.812.552.376.368.564.916.564 1.644v3.9h-.864v-3.9c0-.944-.536-1.416-1.608-1.416-.497 0-1.02.08-1.573.24v5.077h-.864v-5.51zm12.199 5.605c-.44 0-.8-.132-1.08-.396-.28-.272-.42-.656-.42-1.152v-3.745h-1.045v-.792h1.044v-1.693h.865v1.693h1.548v.792h-1.548v3.468c0 .352.056.609.168.769.112.16.32.24.624.24.296 0 .548-.048.756-.144v.816c-.112.04-.256.072-.432.096a2.569 2.569 0 0 1-.48.048zm4.936.084c-.92 0-1.612-.272-2.076-.816-.456-.544-.684-1.325-.684-2.34 0-1.033.232-1.81.696-2.33.472-.527 1.152-.791 2.04-.791.936 0 1.632.28 2.089.84.456.552.684 1.312.684 2.28 0 .992-.24 1.768-.72 2.329-.48.552-1.157.828-2.029.828zm-.012-.792c1.264 0 1.896-.789 1.896-2.365 0-.752-.148-1.328-.444-1.728-.296-.4-.78-.6-1.452-.6-1.256 0-1.884.776-1.884 2.328 0 1.576.628 2.365 1.884 2.365zm8.046.612l-2.797-2.833v2.833h-.864v-8.27h.864v4.501l2.436-2.22h1.08l-2.94 2.592 3.373 3.397h-1.152zm4.258-6.097c.912 0 1.58.296 2.005.888.424.592.628 1.38.612 2.364h-4.37c0 .72.169 1.273.505 1.657.336.384.816.576 1.44.576.8 0 1.484-.172 2.053-.516v.888c-.585.28-1.285.42-2.1.42-.873 0-1.553-.268-2.041-.804-.488-.544-.732-1.337-.732-2.377 0-1.016.228-1.784.684-2.304.464-.528 1.112-.792 1.944-.792zm0 .792c-.528 0-.928.124-1.2.372-.272.24-.444.672-.516 1.296h3.42c-.04-.56-.2-.976-.48-1.248-.272-.28-.68-.42-1.224-.42zm4.236-.204a5.536 5.536 0 0 1 2.532-.588c.84 0 1.444.184 1.812.552.376.368.564.916.564 1.644v3.9h-.864v-3.9c0-.944-.536-1.416-1.608-1.416-.496 0-1.02.08-1.572.24v5.077h-.865v-5.51zm8.321 6.865c-.336-.608-.644-1.34-.924-2.196-.272-.864-.408-1.805-.408-2.82 0-1.017.136-1.957.408-2.821.28-.865.588-1.6.924-2.209h.912c-.296.496-.6 1.188-.912 2.077-.312.88-.468 1.864-.468 2.952 0 1.088.156 2.076.468 2.965.312.888.616 1.572.912 2.052h-.912zm5.158-1.176c-.8 0-1.42-.204-1.86-.612-.433-.416-.649-1.005-.649-1.765v-3.792h.864v3.6c0 .608.132 1.056.396 1.345.264.28.68.42 1.249.42.56 0 .972-.14 1.236-.42.272-.288.408-.737.408-1.345v-3.6h.864v3.792c0 .76-.22 1.349-.66 1.765-.432.408-1.048.612-1.848.612zm4.43-8.186h.96v.949h-.96v-.949zm.048 2.017h.864v5.989h-.864v-5.99zm2.835.48a5.536 5.536 0 0 1 2.533-.588c.84 0 1.444.184 1.812.552.376.368.564.916.564 1.644v3.9h-.864v-3.9c0-.944-.536-1.416-1.608-1.416-.496 0-1.02.08-1.573.24v5.077h-.864v-5.51zm8.718 5.605c-.44 0-.8-.132-1.08-.396-.28-.272-.42-.656-.42-1.152v-3.745h-1.045v-.792h1.045v-1.693h.864v1.693h1.548v.792h-1.548v3.468c0 .352.056.609.168.769.112.16.32.24.624.24.296 0 .548-.048.756-.144v.816c-.112.04-.256.072-.432.096a2.568 2.568 0 0 1-.48.048zm7.649.084c-.408 0-.756-.04-1.044-.12a5.124 5.124 0 0 1-.948-.384v-.913a7.4 7.4 0 0 0 .996.493c.264.088.576.132.936.132.4 0 .724-.088.972-.264.256-.176.384-.404.384-.684 0-.249-.076-.433-.228-.553-.152-.128-.392-.256-.72-.384l-.312-.132a10.561 10.561 0 0 1-1.068-.348 1.764 1.764 0 0 1-.66-.492c-.184-.224-.276-.528-.276-.912s.1-.704.3-.96c.2-.256.46-.444.78-.564a2.69 2.69 0 0 1 1.008-.192c.32 0 .588.036.804.108.224.072.528.192.913.36v.864c-.401-.2-.709-.34-.925-.42a2.072 2.072 0 0 0-.744-.12c-.352 0-.652.072-.9.216-.248.136-.372.332-.372.588 0 .208.06.38.18.516.128.128.284.232.468.312.192.072.448.152.768.24.4.128.716.244.948.348.24.104.449.272.625.504.184.224.276.528.276.913 0 .407-.104.752-.312 1.032a1.906 1.906 0 0 1-.817.612 2.668 2.668 0 0 1-1.032.204zm6.29 0c-.8 0-1.42-.204-1.86-.612-.432-.416-.648-1.005-.648-1.765v-3.792h.864v3.6c0 .608.132 1.056.396 1.345.264.28.68.42 1.248.42.56 0 .972-.14 1.236-.42.272-.288.408-.737.408-1.345v-3.6h.864v3.792c0 .76-.22 1.349-.66 1.765-.432.408-1.048.612-1.848.612zm6.855-6.277c.8 0 1.464.26 1.992.78.528.512.792 1.336.792 2.472 0 .936-.248 1.672-.744 2.209-.496.536-1.2.804-2.112.804-.208 0-.448-.032-.72-.096a4.588 4.588 0 0 1-.769-.252v2.784h-.864v-7.513c0-.44.24-.744.72-.912.489-.176 1.057-.268 1.705-.276zm-.072 5.473c.632 0 1.112-.2 1.44-.6.336-.4.504-.94.504-1.62 0-.753-.136-1.349-.408-1.79-.272-.447-.764-.671-1.476-.671-.432 0-.8.052-1.104.156-.297.096-.445.228-.445.396v3.709c.481.28.977.42 1.489.42zm6.905-5.473c.8 0 1.464.26 1.992.78.528.512.793 1.336.793 2.472 0 .936-.249 1.672-.745 2.209-.496.536-1.2.804-2.112.804-.208 0-.448-.032-.72-.096a4.547 4.547 0 0 1-.768-.252v2.784h-.864v-7.513c0-.44.24-.744.72-.912.488-.176 1.056-.268 1.704-.276zm-.072 5.473c.632 0 1.112-.2 1.44-.6.336-.4.504-.94.504-1.62 0-.753-.136-1.349-.408-1.79-.272-.447-.764-.671-1.476-.671-.432 0-.8.052-1.104.156-.296.096-.444.228-.444.396v3.709c.48.28.976.42 1.488.42zm4.481.624v-8.27h.864v8.27h-.864zm7.89-5.99l-2.568 6.578c-.248.64-.54 1.088-.876 1.344-.328.256-.664.384-1.008.384a1.54 1.54 0 0 1-.565-.108v-.792c.16.072.333.108.517.108.344 0 .612-.124.804-.372.192-.248.372-.624.54-1.128l-2.485-6.013h.985l1.896 4.885 1.896-4.885h.864zm1.201 7.346c.304-.504.612-1.196.924-2.076.312-.88.468-1.865.468-2.953 0-1.08-.16-2.064-.48-2.952-.312-.897-.616-1.585-.912-2.065h.924c.336.608.64 1.344.912 2.209.28.856.42 1.792.42 2.808 0 1.016-.14 1.956-.42 2.82-.272.865-.576 1.6-.912 2.209h-.924zm10.487-.036c-.584 0-1.032-.156-1.344-.468-.304-.304-.456-.748-.456-1.332v-1.873c0-.432-.252-.724-.756-.876v-.588c.208-.056.384-.152.528-.288.152-.136.228-.328.228-.576v-1.872c0-.584.152-1.033.456-1.345.312-.312.76-.468 1.344-.468h.096v.816h-.096c-.32.016-.556.088-.708.216-.152.128-.228.368-.228.72v1.933c0 .464-.232.852-.696 1.164.464.312.696.7.696 1.164v1.933c0 .344.076.58.228.708.152.136.388.212.708.228h.096v.804h-.096zM30.657 78.474c-.792 0-1.46-.224-2.004-.672-.536-.456-.804-1.264-.804-2.424 0-1.152.268-1.957.804-2.413.544-.456 1.212-.684 2.004-.684.6 0 1.192.112 1.777.336v.828a4.374 4.374 0 0 0-1.68-.336c-.713 0-1.233.18-1.561.54-.32.36-.48.937-.48 1.729 0 .8.16 1.38.48 1.74.328.352.848.528 1.56.528a4.2 4.2 0 0 0 1.68-.336v.84a4.893 4.893 0 0 1-1.776.324zm5.86.084c-.92 0-1.613-.272-2.077-.816-.456-.544-.684-1.324-.684-2.34 0-1.032.232-1.809.696-2.329.472-.528 1.152-.792 2.04-.792.937 0 1.633.28 2.089.84.456.553.684 1.313.684 2.28 0 .993-.24 1.77-.72 2.33-.48.551-1.156.827-2.029.827zm-.013-.792c1.265 0 1.897-.788 1.897-2.364 0-.752-.148-1.329-.444-1.728-.296-.4-.78-.6-1.453-.6-1.256 0-1.884.776-1.884 2.328 0 1.576.628 2.364 1.885 2.364zm4.385-7.393h.96v.948h-.96v-.948zm.048 2.016h.864v5.99h-.864v-5.99zm2.836.48a5.536 5.536 0 0 1 2.532-.588c.84 0 1.444.184 1.813.552.375.368.564.916.564 1.645v3.9h-.865v-3.9c0-.945-.536-1.417-1.608-1.417-.496 0-1.02.08-1.572.24v5.077h-.864V72.87zm11.334 1.225c.376.168.696.416.96.744.264.32.396.744.396 1.272 0 .776-.252 1.348-.756 1.716-.504.368-1.22.552-2.148.552h-2.893v-8.005h2.652c1.777 0 2.665.716 2.665 2.148 0 .384-.064.676-.192.876a2.168 2.168 0 0 1-.408.468l-.276.229zm-3.577-.252h1.98c.489 0 .877-.085 1.165-.253.296-.168.444-.504.444-1.008 0-.52-.144-.88-.432-1.08-.28-.2-.708-.3-1.284-.3H51.53v2.64zm2.1 3.732c.609 0 1.089-.104 1.44-.312.353-.216.529-.616.529-1.2 0-.576-.184-.952-.552-1.128-.36-.184-.844-.276-1.453-.276H51.53v2.916h2.1zm7.069-5.293c.672 0 1.2.164 1.584.492.392.328.588.804.588 1.429v2.904c0 .576-.236.964-.708 1.164-.472.192-1.124.288-1.956.288-.632 0-1.176-.14-1.632-.42-.449-.28-.673-.748-.673-1.404 0-.712.197-1.228.588-1.548.393-.328.933-.492 1.62-.492.777 0 1.405.14 1.885.42v-.708c0-.897-.524-1.345-1.572-1.345-.344 0-.692.048-1.044.144-.352.096-.648.24-.889.433v-.865c.24-.152.565-.272.973-.36a5.962 5.962 0 0 1 1.236-.132zm-.288 5.51c.56 0 .964-.04 1.212-.12.248-.089.372-.26.372-.517V75.81a3.11 3.11 0 0 0-.756-.24 4.14 4.14 0 0 0-.9-.096c-.504 0-.892.096-1.164.288-.272.192-.408.472-.408.84 0 .416.16.72.48.912.32.184.708.276 1.164.276zm4.377.587v-8.27h.864v8.27h-.864zm5.346-6.097c.672 0 1.2.164 1.585.492.392.328.588.804.588 1.429v2.904c0 .576-.236.964-.709 1.164-.472.192-1.124.288-1.956.288-.632 0-1.176-.14-1.632-.42-.448-.28-.672-.748-.672-1.404 0-.712.196-1.228.588-1.548.392-.328.932-.492 1.62-.492.776 0 1.404.14 1.884.42v-.708c0-.897-.524-1.345-1.572-1.345-.344 0-.692.048-1.044.144-.352.096-.648.24-.888.433v-.865c.24-.152.564-.272.972-.36a5.962 5.962 0 0 1 1.236-.132zm-.288 5.51c.56 0 .964-.04 1.212-.12.248-.089.372-.26.372-.517V75.81a3.11 3.11 0 0 0-.756-.24 4.14 4.14 0 0 0-.9-.096c-.504 0-.892.096-1.164.288-.272.192-.408.472-.408.84 0 .416.16.72.48.912.32.184.708.276 1.164.276zm4.377-4.922a5.536 5.536 0 0 1 2.533-.588c.84 0 1.444.184 1.812.552.376.368.564.916.564 1.645v3.9h-.864v-3.9c0-.945-.536-1.417-1.608-1.417-.496 0-1.02.08-1.572.24v5.077h-.864V72.87zm9.342 5.605c-.792 0-1.46-.224-2.004-.672-.536-.456-.804-1.264-.804-2.424 0-1.152.268-1.957.804-2.413.544-.456 1.212-.684 2.004-.684.6 0 1.192.112 1.777.336v.828a4.374 4.374 0 0 0-1.68-.336c-.713 0-1.233.18-1.561.54-.32.36-.48.937-.48 1.729 0 .8.16 1.38.48 1.74.328.352.848.528 1.56.528a4.2 4.2 0 0 0 1.68-.336v.84a4.893 4.893 0 0 1-1.776.324zm5.728-6.193c.912 0 1.58.296 2.004.888.424.593.628 1.38.612 2.365H87.54c0 .72.168 1.272.504 1.656.336.384.817.576 1.44.576.8 0 1.485-.172 2.053-.516v.888c-.584.28-1.284.42-2.1.42-.873 0-1.553-.268-2.04-.804-.489-.544-.733-1.336-.733-2.376 0-1.016.228-1.785.684-2.305.464-.528 1.112-.792 1.945-.792zm0 .792c-.529 0-.929.124-1.2.372-.273.24-.445.673-.517 1.297h3.42c-.04-.56-.2-.977-.48-1.249-.271-.28-.68-.42-1.223-.42zm7.583 5.425c-1.184 0-2.08-.344-2.688-1.032-.6-.696-.9-1.724-.9-3.084s.3-2.385.9-3.073c.608-.696 1.504-1.044 2.688-1.044 1.193 0 2.089.348 2.689 1.044.608.688.912 1.712.912 3.073 0 1.36-.304 2.388-.912 3.084-.6.688-1.496 1.032-2.689 1.032zm0-.816c.945 0 1.633-.264 2.065-.792.432-.528.648-1.364.648-2.508 0-1.137-.216-1.969-.648-2.497-.432-.536-1.12-.804-2.065-.804-.936 0-1.62.268-2.052.804-.432.528-.648 1.36-.648 2.497 0 1.144.216 1.98.648 2.508.432.528 1.116.792 2.052.792zm5.831-4.5h-1.033v-.793h1.033v-.324c0-.664.116-1.156.348-1.476.232-.328.48-.528.744-.6.272-.08.552-.12.84-.12a2.1 2.1 0 0 1 .576.072v.768a2.225 2.225 0 0 0-.432-.048c-.256 0-.464.024-.624.072-.16.048-.3.172-.42.372-.112.2-.168.516-.168.948v.336h1.644v.792h-1.644v5.197h-.864v-5.197zm4.416-3.157h2.173v.816h-1.309v8.113h1.309v.817h-2.173v-9.746zm10.428 2.256c.84 0 1.444.184 1.812.552.376.368.564.916.564 1.645v3.9h-.864v-3.9c0-.945-.536-1.417-1.608-1.417a2.79 2.79 0 0 0-1.452.408c.104.28.156.617.156 1.009v3.9h-.864v-3.9c0-.945-.537-1.417-1.609-1.417-.496 0-1.02.08-1.572.24v5.077h-.864V72.87a5.534 5.534 0 0 1 2.532-.588c.776 0 1.361.164 1.753.492.6-.328 1.272-.492 2.016-.492zm5.987 6.277c-.408 0-.756-.04-1.044-.12a5.158 5.158 0 0 1-.949-.384v-.912c.409.232.741.396.997.492.264.088.576.132.936.132.4 0 .724-.088.972-.264.256-.176.384-.404.384-.684 0-.248-.076-.432-.228-.552-.152-.128-.392-.256-.72-.384l-.312-.132a10.565 10.565 0 0 1-1.068-.348 1.765 1.765 0 0 1-.66-.492c-.185-.224-.277-.528-.277-.912 0-.385.1-.705.301-.96.2-.257.46-.445.78-.565.32-.128.656-.192 1.008-.192.32 0 .588.036.804.108.224.072.528.192.912.36v.864c-.4-.2-.708-.34-.924-.42a2.072 2.072 0 0 0-.744-.12c-.352 0-.652.072-.9.216-.248.136-.372.332-.372.588 0 .209.06.38.18.517.128.128.284.232.468.312.192.072.448.152.768.24.4.128.716.244.948.348.24.104.448.272.624.504.184.224.276.528.276.912 0 .408-.104.752-.312 1.032-.208.272-.48.476-.816.612a2.668 2.668 0 0 1-1.032.204zm6.398-6.265c.64 0 1.18.124 1.62.372.448.24.672.612.672 1.116v4.85c0 .591-.192 1.092-.576 1.5-.384.416-1.06.624-2.028.624-.272 0-.529-.024-.769-.072a6.634 6.634 0 0 1-.612-.132 6.5 6.5 0 0 0-.324-.072v-.816c.312.088.584.156.816.204.24.048.505.072.793.072.728 0 1.216-.12 1.464-.36s.372-.549.372-.925v-.444a5.26 5.26 0 0 1-.84.24c-.304.072-.56.108-.768.108-.905 0-1.589-.264-2.053-.792-.456-.536-.684-1.276-.684-2.22.008-1.224.292-2.073.852-2.545s1.249-.708 2.065-.708zm-2.005 3.253c0 .688.148 1.232.444 1.632.296.392.757.588 1.381.588.264 0 .536-.036.816-.108.288-.072.552-.176.792-.312v-3.445c0-.312-.124-.524-.372-.636-.24-.12-.568-.18-.984-.18-.8 0-1.349.22-1.645.66-.288.44-.432 1.04-.432 1.8zm6.221 1.632h1.201v1.2h-1.201v-1.2zm4.811 1.38c-.409 0-.757-.04-1.045-.12a5.123 5.123 0 0 1-.948-.384v-.912c.408.232.74.396.996.492.264.088.576.132.937.132.4 0 .724-.088.972-.264.256-.176.384-.404.384-.684 0-.248-.076-.432-.228-.552-.152-.128-.392-.256-.72-.384l-.312-.132a10.513 10.513 0 0 1-1.069-.348 1.765 1.765 0 0 1-.66-.492c-.184-.224-.276-.528-.276-.912 0-.385.1-.705.3-.96.2-.257.46-.445.78-.565a2.69 2.69 0 0 1 1.009-.192c.32 0 .588.036.804.108.224.072.528.192.912.36v.864c-.4-.2-.708-.34-.924-.42a2.072 2.072 0 0 0-.744-.12c-.353 0-.653.072-.901.216-.248.136-.372.332-.372.588 0 .209.06.38.18.517.128.128.284.232.468.312.192.072.449.152.769.24.4.128.716.244.948.348.24.104.448.272.624.504.184.224.276.528.276.912 0 .408-.104.752-.312 1.032-.208.272-.48.476-.816.612a2.668 2.668 0 0 1-1.032.204zm6.109-6.277c.912 0 1.581.296 2.005.888.424.593.628 1.38.612 2.365h-4.369c0 .72.168 1.272.504 1.656.336.384.816.576 1.44.576.8 0 1.485-.172 2.053-.516v.888c-.584.28-1.285.42-2.101.42-.872 0-1.552-.268-2.04-.804-.488-.544-.732-1.336-.732-2.376 0-1.016.228-1.785.684-2.305.464-.528 1.112-.792 1.944-.792zm0 .792c-.528 0-.928.124-1.2.372-.272.24-.444.673-.516 1.297h3.421c-.04-.56-.2-.977-.48-1.249-.273-.28-.681-.42-1.225-.42zm4.236-.204a5.534 5.534 0 0 1 2.532-.588c.84 0 1.444.184 1.812.552.376.368.564.916.564 1.645v3.9h-.864v-3.9c0-.945-.536-1.417-1.608-1.417-.496 0-1.02.08-1.572.24v5.077h-.864V72.87zm11.742-3.012v7.49c0 .407-.26.711-.78.911-.512.2-1.073.3-1.681.3a2.836 2.836 0 0 1-1.92-.708c-.544-.48-.82-1.328-.828-2.544 0-.944.228-1.68.684-2.209.464-.536 1.148-.804 2.052-.804.208 0 .464.036.768.108.312.064.593.144.841.24v-2.784h.864zm-.864 3.648a3.152 3.152 0 0 0-.793-.312 3.271 3.271 0 0 0-.816-.108c-.624 0-1.084.2-1.38.6-.296.392-.444.933-.444 1.62 0 .753.136 1.353.408 1.801.272.44.764.66 1.476.66a3.65 3.65 0 0 0 1.092-.144c.305-.096.457-.216.457-.36v-3.757zm5.117-1.224c.912 0 1.58.296 2.004.888.424.593.628 1.38.612 2.365h-4.369c0 .72.168 1.272.504 1.656.336.384.816.576 1.441.576.8 0 1.484-.172 2.052-.516v.888c-.584.28-1.284.42-2.1.42-.873 0-1.553-.268-2.041-.804-.488-.544-.732-1.336-.732-2.376 0-1.016.228-1.785.684-2.305.464-.528 1.112-.792 1.945-.792zm0 .792c-.529 0-.929.124-1.201.372-.272.24-.444.673-.516 1.297h3.421c-.04-.56-.2-.977-.48-1.249-.272-.28-.68-.42-1.224-.42zm4.235-.204a8.96 8.96 0 0 1 1.2-.384 5.962 5.962 0 0 1 1.56-.204c.08 0 .208.024.384.072v.768a5.19 5.19 0 0 0-1.308.012c-.224.032-.548.084-.972.156v5.09h-.864v-5.51zm4.572 6.085h1.296v-8.113h-1.296v-.816h2.16v9.746h-2.16v-.817zm8.568-5.497h4.621v.829h-4.621v-.829zm0 1.849h4.621v.84h-4.621v-.84zm12.263 3.252c-.408 0-.756-.04-1.044-.12a5.123 5.123 0 0 1-.948-.384v-.912c.408.232.74.396.996.492.264.088.576.132.936.132.401 0 .725-.088.973-.264.256-.176.384-.404.384-.684 0-.248-.076-.432-.228-.552-.152-.128-.392-.256-.72-.384l-.313-.132a10.565 10.565 0 0 1-1.068-.348 1.765 1.765 0 0 1-.66-.492c-.184-.224-.276-.528-.276-.912 0-.385.1-.705.3-.96.2-.257.46-.445.78-.565a2.69 2.69 0 0 1 1.009-.192c.32 0 .588.036.804.108.224.072.528.192.912.36v.864c-.4-.2-.708-.34-.924-.42a2.072 2.072 0 0 0-.744-.12c-.353 0-.653.072-.901.216-.248.136-.372.332-.372.588 0 .209.06.38.18.517.128.128.284.232.468.312.192.072.448.152.769.24.4.128.716.244.948.348.24.104.448.272.624.504.184.224.276.528.276.912 0 .408-.104.752-.312 1.032-.208.272-.48.476-.816.612a2.67 2.67 0 0 1-1.033.204zm6.29 0c-.8 0-1.42-.204-1.86-.612-.432-.416-.648-1.004-.648-1.764v-3.793h.864v3.6c0 .609.132 1.057.396 1.345.264.28.68.42 1.248.42.56 0 .972-.14 1.237-.42.272-.288.408-.736.408-1.344v-3.6h.864v3.792c0 .76-.22 1.348-.66 1.764-.432.408-1.049.612-1.849.612zm6.855-6.277c.8 0 1.464.26 1.992.78.528.512.793 1.337.793 2.473 0 .936-.248 1.672-.745 2.208-.496.536-1.2.804-2.112.804-.208 0-.448-.032-.72-.096a4.546 4.546 0 0 1-.768-.252v2.785h-.864v-7.514c0-.44.24-.744.72-.912.488-.176 1.056-.268 1.704-.276zm-.072 5.473c.632 0 1.112-.2 1.44-.6.336-.4.504-.94.504-1.62 0-.752-.136-1.348-.408-1.788-.272-.449-.764-.673-1.476-.673-.432 0-.8.052-1.104.156-.296.096-.444.228-.444.397v3.708c.48.28.976.42 1.488.42zm6.905-5.473c.8 0 1.465.26 1.993.78.528.512.792 1.337.792 2.473 0 .936-.248 1.672-.744 2.208-.496.536-1.201.804-2.113.804-.208 0-.448-.032-.72-.096a4.546 4.546 0 0 1-.768-.252v2.785h-.864v-7.514c0-.44.24-.744.72-.912.488-.176 1.056-.268 1.704-.276zm-.072 5.473c.632 0 1.113-.2 1.441-.6.336-.4.504-.94.504-1.62 0-.752-.136-1.348-.408-1.788-.272-.449-.765-.673-1.477-.673-.432 0-.8.052-1.104.156-.296.096-.444.228-.444.397v3.708c.48.28.976.42 1.488.42zm4.481.624v-8.27h.864v8.27h-.864zm7.891-5.989l-2.569 6.577c-.248.64-.54 1.089-.876 1.345-.328.256-.664.384-1.008.384-.192 0-.38-.036-.564-.108v-.792c.16.072.332.108.516.108.344 0 .612-.124.804-.373.192-.248.372-.624.54-1.128l-2.484-6.013h.984l1.896 4.885 1.896-4.885h.865zm1.68.612h1.201v1.2h-1.201v-1.2zm-.012 4.37h1.105l-1.009 2.352h-.864l.768-2.353zM14.104 92.896h.072c.32-.016.556-.092.708-.228.152-.128.229-.364.229-.708v-1.933c0-.456.236-.844.708-1.164-.473-.32-.708-.708-.708-1.164v-1.932c0-.352-.076-.592-.229-.72-.144-.129-.38-.2-.708-.216h-.072v-.817h.072c.584 0 1.028.156 1.332.468.313.313.469.76.469 1.345V87.7c0 .248.072.44.216.576.152.136.332.232.54.288v.588c-.504.152-.756.444-.756.876v1.873c0 .584-.156 1.028-.469 1.332-.303.312-.748.468-1.332.468h-.072v-.804z" opacity=".6"/>
</svg>
