<svg xmlns="http://www.w3.org/2000/svg" width="28" height="28" fill="none" viewBox="0 0 28 28">
    <g fill="#fff" clip-path="url(#a)">
        <path d="M25.375 6.938l-6.77-6.77A.572.572 0 0 0 18.2 0H5.235a2.78 2.78 0 0 0-2.777 2.777v22.446A2.78 2.78 0 0 0 5.235 28h17.53a2.78 2.78 0 0 0 2.777-2.777V7.342a.572.572 0 0 0-.167-.404zM18.772 1.95l4.82 4.82h-3.186c-.436 0-.847-.17-1.156-.48a1.623 1.623 0 0 1-.478-1.155V1.951zm5.627 23.272c0 .901-.733 1.634-1.634 1.634H5.235a1.636 1.636 0 0 1-1.634-1.634V2.777c0-.901.733-1.634 1.634-1.634H17.63v3.993c0 .742.289 1.44.813 1.964a2.759 2.759 0 0 0 1.964.813H24.4v17.31z"/>
        <path d="M15.044 19.222h-.256a.571.571 0 0 0 0 1.143h.256a.571.571 0 0 0 0-1.143zM12.94 19.222H7.388a.571.571 0 1 0 0 1.143h5.55a.571.571 0 1 0 0-1.143zM20.611 16.611H7.39a.572.572 0 0 0 0 1.143H20.61a.571.571 0 0 0 0-1.143zM20.611 14H7.39a.571.571 0 1 0 0 1.143H20.61a.572.572 0 0 0 0-1.143zM20.611 11.389H7.39a.571.571 0 1 0 0 1.143H20.61a.572.572 0 0 0 0-1.143z"/>
    </g>
    <defs>
        <clipPath id="a">
            <path fill="#fff" d="M0 0h28v28H0z"/>
        </clipPath>
    </defs>
</svg>
