<svg xmlns="http://www.w3.org/2000/svg" width="8" height="14" fill="none" viewBox="0 0 8 14">
    <path fill="#101012" d="M7.986 9.07c0 .888-.263 1.65-.789 2.284-.526.625-1.26 1.02-2.202 1.184V14H3.122v-1.413c-1.117-.066-2.098-.307-2.941-.723v-2.53a5.659 5.659 0 0 0 1.676.92 5.949 5.949 0 0 0 1.857.312c1.03 0 1.544-.39 1.544-1.167 0-.34-.164-.602-.493-.789-.328-.197-.86-.416-1.594-.657-.34-.11-.547-.18-.624-.214-.789-.263-1.413-.619-1.873-1.068C.224 6.222 0 5.554 0 4.667c0-.833.263-1.561.789-2.186.525-.635 1.303-1.04 2.333-1.216V0h1.873v1.216c.438.044.844.12 1.216.23.373.11.762.263 1.167.46v2.547c-.46-.35-.953-.64-1.479-.87a3.944 3.944 0 0 0-1.594-.346c-.482 0-.87.099-1.167.296-.284.186-.427.46-.427.821 0 .285.088.52.263.707.175.175.389.312.641.41.263.1.68.236 1.249.412.679.197 1.238.416 1.676.657a2.89 2.89 0 0 1 1.051.97c.263.405.395.925.395 1.56z" opacity=".5"/>
</svg>
