<svg xmlns="http://www.w3.org/2000/svg" width="146" height="39" fill="none" viewBox="0 0 146 39">
    <path fill="#16C481" d="M0 0v8.017l22.12 13.466v-8.017L0 0zM22.12 33.21L0 19.756v-8.017l22.12 13.454v8.017zM11.066 38.222L0 31.495v-8.017l11.066 6.727v8.017z"/>
    <path fill="#23ECA6" d="M44.238 0L22.12 13.466v8.017L44.24 8.017V0zM22.12 33.21l22.118-13.454v-8.017L22.12 25.193v8.017zM33.173 38.222l11.066-6.727v-8.017l-11.066 6.727v8.017zM89.217 7.819v23.867h-2.575V12.004l-8.685 12.201-8.138-12.128v19.61h-2.576V7.818h2.782l8.078 12.42 8.32-12.42h2.794zM115.191 21.115c.79.961 1.178 2.239 1.178 3.808 0 2.311-.753 4.014-2.247 5.121-1.506 1.095-3.632 1.642-6.389 1.642h-8.612V7.82h7.895c5.284 0 7.932 2.141 7.932 6.399 0 1.143-.194 2.007-.571 2.59-.376.585-.789 1.06-1.214 1.412-.426.353-.705.584-.826.681a7.785 7.785 0 0 1 2.854 2.214zm-13.507-2.956h5.891c1.458 0 2.612-.255 3.486-.754.875-.499 1.3-1.509 1.3-3.005 0-1.545-.425-2.627-1.263-3.223-.851-.597-2.126-.9-3.839-.9h-5.575v7.882zm10.543 10.182c1.045-.633 1.567-1.825 1.567-3.564 0-1.716-.546-2.847-1.627-3.382-1.082-.535-2.527-.803-4.337-.803h-6.146v8.698h6.255c1.81 0 3.231-.316 4.288-.949zM146 7.819v23.867h-2.891l-14.26-20.108v20.108h-2.575V7.82h2.927l14.224 20.108V7.82H146z"/>
</svg>
