<svg xmlns="http://www.w3.org/2000/svg" width="103" height="27" fill="none" viewBox="0 0 103 27">
    <path fill="#8F9092" d="M0 0v5.656l15.605 9.5V9.5L0 0zM15.605 23.43L0 13.936V8.282l15.605 9.491v5.656zM7.807 26.965L0 22.219v-5.655l7.807 4.745v5.656zM31.21 0L15.605 9.5v5.656l15.605-9.5V0zM15.605 23.43l15.605-9.493V8.282l-15.605 9.491v5.656zM23.403 26.965l7.806-4.746v-5.655l-7.806 4.745v5.656zM62.94 5.517v16.838h-1.816V8.469l-6.127 8.608-5.741-8.557v13.835h-1.817V5.517h1.962l5.699 8.762 5.87-8.762h1.97zM81.265 14.896c.557.678.831 1.58.831 2.686 0 1.631-.531 2.833-1.585 3.613-1.063.773-2.562 1.16-4.508 1.16h-6.075V5.515h5.57c3.727 0 5.596 1.51 5.596 4.514 0 .807-.138 1.416-.403 1.828a4.355 4.355 0 0 1-.857.996c-.3.249-.497.412-.583.48.788.36 1.457.876 2.014 1.562zm-9.53-2.085h4.157c1.028 0 1.842-.18 2.46-.532.616-.352.916-1.064.916-2.12 0-1.09-.3-1.854-.891-2.274-.6-.42-1.5-.635-2.708-.635h-3.933v5.56zm7.439 7.183c.737-.446 1.105-1.287 1.105-2.514 0-1.21-.385-2.009-1.148-2.386-.763-.378-1.782-.567-3.06-.567h-4.335v6.136h4.413c1.277 0 2.28-.223 3.025-.669zM103 5.516v16.838h-2.039L90.901 8.168v14.186h-1.817V5.516h2.065l10.034 14.186V5.516H103z"/>
</svg>
