<svg xmlns="http://www.w3.org/2000/svg" width="291" height="396" fill="none" viewBox="0 0 291 396">
    <g opacity=".7">
        <path fill="#48EDDF" d="M137.545 335.563v7.425h20.234s-.675-6.553-10.952-7.425h-9.282zM111.753 335.563v7.425h20.235s1.16-6.246-10.831-7.425h-9.404z" style="mix-blend-mode:screen"/>
        <path fill="url(#a)" d="M212.96 186.396c-2.229 7.773 8.88 27.221 12.102 27.221 6.02 0 19.801-.585 19.801-.585l3.227-4.622-22.655-3.615s-1.962-23.289-4.412-24.816c-1.755-1.069-6.379.499-8.063 6.417z" style="mix-blend-mode:screen"/>
        <path fill="#92FFF9" d="M197.505 218.875a32.644 32.644 0 0 0-4.301 13.283c-1.265 12.602 1.155 69.509 1.155 69.509h7.876s.64-53.6 8.985-62.039l12.102 62.044h5.844l-5.325-82.792-26.336-.005z" style="mix-blend-mode:screen"/>
        <path fill="#04685A" d="M223.867 218.875s.928-24.051-2.143-38.886c0 0-25.418-5.842-28.882 2.697-5.385 13.278 6.287 22.119 4.664 36.189h26.361z" style="mix-blend-mode:screen"/>
        <path fill="#17042B" d="M228.823 301.667s1.462 11.932 3.978 14.528 2.113 4.219 2.113 4.219a12.252 12.252 0 0 1-4.034.408c-2.677-.08-4.79-2.596-5.682-6.981a17.936 17.936 0 0 0-.57 4.99h-1.009s-.504-6.125-1.785-7.914c-1.28-1.79 2.068-5.071 1.987-9.25h5.002zM201.106 301.667s1.462 11.932 3.978 14.528 2.113 4.219 2.113 4.219a12.255 12.255 0 0 1-4.034.408c-2.683-.08-4.79-2.596-5.688-6.981a18.087 18.087 0 0 0-.564 4.99h-1.009s-.504-6.125-1.785-7.914c-1.281-1.79 2.073-5.071 2.017-9.25h4.972z"/>
        <path fill="#92FFF9" d="M200.153 176.359s5.41 8.812 13.997 8.287c1.558-.09.58-6.709.58-6.709s-8.184-2.45-14.577-1.578z" style="mix-blend-mode:screen"/>
        <path fill="url(#b)" d="M214.014 159.735c2.345 8.771 2.688 15.878-1.261 17.164l-.408 5.242s-7.488-.226-9.52-3.085l-.196-4.829c-1.725-1.85-3.308-4.668-4.473-8.882-3.413-12.32 13.408-14.785 15.858-5.61z"/>
        <path fill="#F67028" d="M197.945 168.486c-2.799-4.079-3.222-12.779 4.921-15.395 9.399-3.025 12.701 6.593 14.239 11.75 2.577 8.645 1.009 10.929 1.009 10.929s-2.945-1.785-2.925-1.876c1.009-4.955-.696-7.989-1.407-11.785-.544-2.904-4.734-.792-6.66-3.191 0 0 .151 3.196-3.051 6.215a46.555 46.555 0 0 1 2.082 5.475c.757 3.271-1.084 7.445-5.329 9.814l-1.916-.665a10.933 10.933 0 0 0-.963-11.271z"/>
        <path fill="url(#c)" d="M246.204 223.684c-14.356 0-25.993-11.635-25.993-25.986 0-14.352 11.637-25.986 25.993-25.986 14.355 0 25.993 11.634 25.993 25.986 0 14.351-11.638 25.986-25.993 25.986z"/>
        <path fill="#17042B" d="M259.288 187.459l-13.074-3.473-6.555 23.435s13.74-.126 13.901-.191c.162-.066 5.728-19.771 5.728-19.771z"/>
        <path fill="#17042B" d="M253.566 207.23a2.451 2.451 0 0 1-2.058 1.462c-1.578.161-31.317-.217-31.317-.217s-1.119-.595-1.16-1.104l34.535-.141z"/>
        <path fill="#F9BF5A" d="M227.305 202.326v4.975h10.362l1.009-1.457s-2.577-3.518-11.371-3.518z" style="mix-blend-mode:screen"/>
        <path fill="url(#d)" d="M192.181 184.39c-2.234 7.773 8.93 27.815 12.101 27.221 4.231-.787 23.028-4.32 23.028-4.32v-4.966l-22.004-.146-4.78-23.425s-6.641-.287-8.345 5.636z" style="mix-blend-mode:screen"/>
        <path fill="#F9BF5A" d="M250.701 199.401l-2.637.066-4.588 9.245 1.361 4.33s8.688-3.725 5.864-13.641z" style="mix-blend-mode:screen"/>
        <path fill="#103DFC" d="M54.825 75.556a10.896 10.896 0 0 0-9.03-11.635 10.904 10.904 0 0 0-12.38 7.979 10.897 10.897 0 0 0 2.44 10.053l-1.376 4.083a.474.474 0 0 0 .6.595l5.098-1.76a10.899 10.899 0 0 0 14.648-9.335v.02zM111.354 63.357a10.905 10.905 0 0 0-4.148-9.476 10.908 10.908 0 0 0-10.198-1.744 10.901 10.901 0 0 0-7.115 12.892 10.898 10.898 0 0 0 2.486 4.72l-1.376 4.083a.473.473 0 0 0 .6.595l5.098-1.74a10.905 10.905 0 0 0 14.653-9.335v.005z" style="mix-blend-mode:screen"/>
        <path fill="#450DBF" d="M137.568 27.879a10.897 10.897 0 0 0-9.029-11.635 10.905 10.905 0 0 0-12.381 7.979 10.897 10.897 0 0 0 2.441 10.053l-1.377 4.083a.479.479 0 0 0 .118.481.473.473 0 0 0 .482.114l5.098-1.74a10.9 10.9 0 0 0 13.097-4.603 10.888 10.888 0 0 0 1.526-4.732h.025zM154.974 11.597a10.734 10.734 0 1 1 18.692 6.3l1.356 4.034c.028.082.033.17.014.255a.47.47 0 0 1-.604.334l-5.042-1.713a10.745 10.745 0 0 1-12.915-4.543 10.738 10.738 0 0 1-1.501-4.667z" style="mix-blend-mode:screen"/>
        <path fill="#0909B7" d="M261.497 46.188a10.734 10.734 0 1 1 18.692 6.3l1.351 4.033a.457.457 0 0 1-.331.6.46.46 0 0 1-.254-.015l-5.042-1.714a10.74 10.74 0 0 1-12.928-4.528 10.713 10.713 0 0 1-1.503-4.671l.015-.005zM269.565 224.505a10.734 10.734 0 0 1 18.544-8.191 10.737 10.737 0 0 1 2.591 9.846 10.73 10.73 0 0 1-2.444 4.647l1.352 4.032a.467.467 0 0 1-.109.477.457.457 0 0 1-.476.108l-5.042-1.714a10.732 10.732 0 0 1-12.915-4.537 10.723 10.723 0 0 1-1.501-4.668z" style="mix-blend-mode:screen"/>
        <path fill="#450DBF" d="M216.606 71.433a10.729 10.729 0 0 1 8.894-11.45 10.736 10.736 0 0 1 12.239 13.104 10.729 10.729 0 0 1-2.447 4.647l1.357 4.032a.475.475 0 0 1-.115.475.471.471 0 0 1-.475.115l-5.042-1.714a10.752 10.752 0 0 1-9.499-1.02 10.744 10.744 0 0 1-4.932-8.18l.02-.01z" style="mix-blend-mode:screen"/>
        <path fill="#0A2FA3" d="M224.709 39.17c-.086-1 .077-2.005.476-2.926a6.059 6.059 0 0 1 4.519-3.555 6.051 6.051 0 0 1 5.528 10.01l.762 2.264a.267.267 0 0 1-.189.34.262.262 0 0 1-.144-.008l-2.829-.963a6.053 6.053 0 0 1-8.123-5.177v.015z" style="mix-blend-mode:screen"/>
        <path fill="#48EDDF" d="M246.008 100.085a12.507 12.507 0 0 1 5.207-16.086 12.522 12.522 0 0 1 18.625 9.515 12.515 12.515 0 0 1-.84 6.067l3.081 3.876a.544.544 0 0 1 .068.568.547.547 0 0 1-.481.309l-6.187.111a12.513 12.513 0 0 1-10.821 2.66 12.52 12.52 0 0 1-8.652-7.02z" style="mix-blend-mode:screen"/>
        <path fill="url(#e)" d="M105.157 90.825s-4.079 20.068-4.236 20.164a2.454 2.454 0 0 1-1.941 1.608c-.308.055-1.72.171-3.782.322-1.21 1.624-3.096 3.126-5.965 4.28 0 0-2.768.625-6.449 1.412-6.767 1.446-16.64 3.443-18.223 3.115a.458.458 0 0 1-.191-.106c-.504 5.888-.787 10.122-.787 10.122l.978 77.273c10.438.892 11.124 7.561 11.124 7.561H55.137v-7.561h-.04l-8.027-63.244-8.572 63.234c12.182 1.199 11.002 7.561 11.002 7.561H28.918v-84.814s-4.538-36.617-4.538-41.31c0-4.033 4.316-10.057 15.126-11.705a15.574 15.574 0 0 1 3.237-.348l-.64-8.524-.116.05-.05-.04a14.426 14.426 0 0 1-5.154-8.882c-.504-2.944 1.21-6.72 4.291-9.396 4.17-3.63 9.883-4.638 15.672-2.778h.03a4.236 4.236 0 0 1 1.67 2.798c.206 1.542-.47 3.22-2.018 4.99l-.035.03h-.035c.12.747.766 4.865 1.084 8.67h.035s1.064 6.126.07 7.119c-.61.61-2.405 1.119-4.033 1.426l1.008 5.717c7.216 2.016 12.54 6.008 13.433 8.302.731 1.467 2.37 13.913 3.232 20.784a15.079 15.079 0 0 1 7.392 2.707v1.366l-.676.065 9.192-.725 4.76-23.723 13.302 2.48z" style="mix-blend-mode:screen"/>
        <path fill="url(#f)" d="M128.961 79.83s-4.079 20.069-4.236 20.165a2.448 2.448 0 0 1-1.941 1.608c-.308.055-1.719.171-3.782.322-1.21 1.623-3.096 3.126-5.965 4.28 0 0-2.763.63-6.449 1.416-6.766 1.452-16.64 3.443-18.222 3.121a.583.583 0 0 1-.192-.106c-.504 5.888-.782 10.117-.782 10.117l.979 77.277c10.432.888 11.093 7.562 11.093 7.562H78.91v-7.562h-.04l-8.002-63.253-8.572 63.238c12.182 1.195 11.002 7.562 11.002 7.562H52.747v-84.864s-4.538-36.612-4.538-41.306c0-4.032 4.316-10.081 15.127-11.71a15.571 15.571 0 0 1 3.237-.343l-.635-8.524-.117.046-.055-.04a14.441 14.441 0 0 1-5.153-8.878c-.504-2.944 1.215-6.72 4.29-9.396 4.17-3.63 9.884-4.643 15.672-2.778h.03a4.197 4.197 0 0 1 1.674 2.793c.202 1.548-.474 3.226-2.016 4.996l-.036.025h-.035c.121.74.766 4.86 1.09 8.67h.03s1.063 6.125.07 7.118c-.605.605-2.4 1.12-4.034 1.427l1.009 5.716c7.215 2.016 12.545 6.009 13.437 8.303.726 1.466 2.37 13.912 3.232 20.778 2.66.238 5.21 1.174 7.392 2.712v1.366l-.675.061 9.192-.721 4.709-23.718 13.317 2.52z" style="mix-blend-mode:screen"/>
        <path fill="url(#g)" d="M112.352 115.505a.501.501 0 0 1-.192-.105 567.114 567.114 0 0 0-.782 10.122l.979 77.272c10.432.892 11.093 7.561 11.093 7.561h-20.553v-7.561h-.04l-8.017-63.238-8.572 63.238c12.177 1.2 11.002 7.561 11.002 7.561H76.718v-84.833s-4.538-36.618-4.538-41.31c0-4.034 4.316-10.057 15.127-11.706a15.615 15.615 0 0 1 3.237-.348l-.635-8.524-.117.05-.055-.04a14.457 14.457 0 0 1-5.148-8.882c-.504-2.944 1.21-6.72 4.29-9.396 4.17-3.63 9.879-4.638 15.667-2.778h.03a4.21 4.21 0 0 1 1.674 2.798c.202 1.543-.474 3.221-2.016 4.99l-.036.03h-.035c.121.747.766 4.865 1.089 8.671h.035s1.059 6.125.066 7.118c-.605.61-2.4 1.12-4.034 1.427l1.009 5.716c7.215 2.016 12.545 6.009 13.437 8.302.731 1.467 2.37 13.913 3.232 20.784 2.461.267-5.062 13.404-6.645 13.081z" style="mix-blend-mode:screen"/>
        <path fill="url(#h)" d="M209.052 129.232a.578.578 0 0 1-.191-.106c-.504 5.888-.787 10.122-.787 10.122l.978 77.273c10.438.892 11.124 7.561 11.124 7.561h-20.553v-7.561h-.04l-8.022-63.239-8.572 63.239c12.182 1.199 11.002 7.561 11.002 7.561h-20.552v-84.859s-4.538-36.617-4.538-41.31c0-4.033 4.316-10.057 15.127-11.706a15.233 15.233 0 0 1 3.217-.327l-.641-8.524-.116.05-.05-.04a14.427 14.427 0 0 1-5.153-8.882c-.505-2.944 1.21-6.72 4.291-9.397 4.169-3.63 9.882-4.642 15.671-2.777h.03a4.199 4.199 0 0 1 1.669 2.792c.207 1.548-.469 3.227-2.017 4.996l-.035.03h-.035c.121.746.766 4.86 1.084 8.67h.035s1.064 6.125.071 7.118c-.605.605-2.4 1.12-4.034 1.427l1.008 5.716c7.216 2.017 12.54 6.01 13.433 8.303.731 1.467 2.37 13.913 3.232 20.784 2.466.247-5.052 13.383-6.636 13.086z" style="mix-blend-mode:screen"/>
        <path fill="url(#i)" d="M205.901 300.749a.509.509 0 0 1-.192-.105c-.504 5.887-.786 10.122-.786 10.122l.978 77.272c10.438.892 11.123 7.562 11.123 7.562h-20.552v-7.562h-.04l-7.997-63.218-8.572 63.233c12.182 1.2 11.002 7.562 11.002 7.562h-20.552v-84.849s-4.538-36.618-4.538-41.336c0-4.033 4.316-10.057 15.126-11.705a15.945 15.945 0 0 1 3.238-.348l-.641-8.524-.111.05-.055-.04a14.446 14.446 0 0 1-5.163-8.857c-.505-2.944 1.215-6.724 4.291-9.401 4.169-3.625 9.882-4.638 15.671-2.778h.03c.451.332.831.75 1.117 1.231.287.48.475 1.013.552 1.567.207 1.543-.469 3.221-2.017 4.991l-.035.03h-.035c.121.746.766 4.864 1.084 8.67h.035s1.064 6.13.071 7.123c-.605.605-2.4 1.114-4.034 1.422l1.008 5.716c7.216 2.016 12.54 6.009 13.433 8.302.731 1.467 2.375 13.918 3.237 20.784 2.451.277-5.068 13.414-6.676 13.086z" style="mix-blend-mode:screen"/>
        <path fill="url(#j)" d="M166.571 112.814a.447.447 0 0 1-.191-.101 606.031 606.031 0 0 0-.787 10.117l.978 77.277c10.438.887 11.124 7.562 11.124 7.562h-20.553v-7.562h-.04l-8.022-63.238-8.572 63.238c12.182 1.195 11.002 7.562 11.002 7.562h-20.552V122.83s-4.538-36.612-4.538-41.305c0-4.033 4.316-10.082 15.127-11.71a15.556 15.556 0 0 1 3.232-.343l-.636-8.525-.115.046-.051-.04a14.412 14.412 0 0 1-5.153-8.878c-.504-2.944 1.21-6.72 4.291-9.4 4.17-3.625 9.883-4.639 15.671-2.773h.03a4.254 4.254 0 0 1 1.669 2.797c.207 1.543-.468 3.227-2.016 4.996l-.031.025h-.035c.121.741.766 4.86 1.084 8.665h.025s1.059 6.125.066 7.118c-.605.605-2.4 1.114-4.034 1.422l1.008 5.716c7.211 2.016 12.541 6.014 13.433 8.308.731 1.466 2.37 13.913 3.232 20.778 2.431.267-5.067 13.414-6.646 13.087z" style="mix-blend-mode:screen"/>
        <path fill="url(#k)" d="M80.747 91.178s-4.08 20.068-4.236 20.164a2.462 2.462 0 0 1-1.94 1.608c-.308.055-1.72.171-3.782.322-1.21 1.623-3.097 3.126-5.966 4.28 0 0-2.768.625-6.448 1.411-6.767 1.447-16.64 3.443-18.223 3.116a.469.469 0 0 1-.192-.106c-.504 5.888-.787 10.122-.787 10.122l.979 77.272c10.437.893 11.123 7.562 11.123 7.562H30.723v-7.562h-.04l-8.023-63.233-8.572 63.233c12.182 1.2 11.002 7.562 11.002 7.562H4.538V132.08S0 95.463 0 90.77c0-4.033 4.316-10.057 15.127-11.706a15.566 15.566 0 0 1 3.237-.347h.076l.796-6.846-.1.066-.061-.03a14.62 14.62 0 0 1-7.215-7.759c-1.054-2.792.055-6.825 2.581-10.036 3.419-4.34 9.58-7.733 15.4-6.2.065 0 5.193 2.666 1.008 8.267l-.03.03-.03.025c.478 1.32 4.94 13.787 3.529 15.062a13.92 13.92 0 0 1-3.202 2.118l-.434 6.659.757.262c.203.055.403.12.6.196 6.227 2.143 10.7 5.621 11.511 7.703.731 1.467 2.37 13.918 3.232 20.784a15.21 15.21 0 0 1 7.397 2.707v1.366l-.68.065 9.202-.746 4.76-23.722 13.286 2.49z" style="mix-blend-mode:screen"/>
        <path fill="url(#l)" d="M181.078 85.29l-.071.025-.181-4.537-6.863.283.631 15.571 2.475-.1-9.187 11.856s-7.946-8.464-12.948-12.759c-.272-.328-1.735-1.981-3.202-2.324a1.887 1.887 0 0 0-.267-.09 1.954 1.954 0 0 0-.308-.046 359.394 359.394 0 0 0-3.464-.791l-.549-.147-.127-2.948v.146s4.004-4.653 3.354-9.996c-.651-5.344-3.298-15.189-12.959-13.157-8.365 1.764-8.32 10.52-5.955 14.865a13.996 13.996 0 0 1 1.513 9.916c-2.587.383-4.69 1.326-5.759 3.18-6.676 11.595 5.28 25.13 3.656 39.199a32.596 32.596 0 0 0-4.306 13.283c-1.266 12.602 1.16 69.504 1.16 69.504h1.709c.081 4.184-3.288 7.471-1.987 9.255 1.301 1.785 1.785 7.915 1.785 7.915h1.009a17.948 17.948 0 0 1 .57-4.991c.892 4.381 3.025 6.896 5.682 6.982a12.229 12.229 0 0 0 4.034-.409s.408-1.623-2.113-4.219-3.978-14.533-3.978-14.533h1.129s.651-53.595 8.986-62.038l12.101 62.038h.444c.081 4.184-3.288 7.471-1.987 9.255 1.301 1.785 1.785 7.915 1.785 7.915h1.009a17.948 17.948 0 0 1 .57-4.991c.892 4.381 3.025 6.896 5.682 6.982a12.216 12.216 0 0 0 4.059-.409s.409-1.623-2.108-4.219c-2.516-2.596-3.978-14.533-3.978-14.533h.363l-5.324-82.787s0-16.166-.268-20.718c5.718 2.903 11.809 4.663 13.342 4.154 5.718-1.896 11.184-17.956 11.184-17.956s2.723-6.624-.343-13.626z" style="mix-blend-mode:screen"/>
        <path fill="url(#m)" d="M82.068 137.761l-.07.025-.187-4.537-6.863.278.63 15.571 2.481-.101-9.191 11.856s-7.942-8.463-12.944-12.758c-.277-.328-1.735-1.981-3.207-2.324a2.19 2.19 0 0 0-.262-.091 2.056 2.056 0 0 0-.313-.045 272.375 272.375 0 0 0-3.459-.786c-.146-.046-.333-.091-.55-.152l-.125-2.949v.147s4.003-4.653 3.353-9.997c-.65-5.343-3.298-15.188-12.954-13.156-8.37 1.764-8.325 10.525-5.96 14.865a14.032 14.032 0 0 1 1.513 9.916c-2.587.383-4.695 1.326-5.764 3.181-6.675 11.594 5.28 25.129 3.656 39.198a32.686 32.686 0 0 0-4.306 13.283c-1.26 12.602 1.16 69.509 1.16 69.509h1.724c.081 4.179-3.292 7.466-2.017 9.25 1.276 1.785 1.785 7.914 1.785 7.914h1.009a17.84 17.84 0 0 1 .564-4.99c.893 4.38 3.026 6.901 5.683 6.982a12.247 12.247 0 0 0 4.064-.409s.404-1.623-2.112-4.219c-2.517-2.596-3.979-14.528-3.979-14.528h1.13s.65-53.6 8.985-62.044l12.101 62.044h.52c.08 4.179-3.288 7.466-2.017 9.25 1.27 1.785 1.79 7.914 1.79 7.914h1.008a17.944 17.944 0 0 1 .57-4.99c.893 4.38 3.025 6.901 5.683 6.982a12.226 12.226 0 0 0 4.034-.409s.403-1.623-2.113-4.219-3.978-14.528-3.978-14.528h.368l-5.325-82.792s0-16.166-.272-20.718c5.723 2.903 11.809 4.662 13.346 4.153 5.718-1.89 11.18-17.95 11.18-17.95s2.697-6.624-.369-13.626z" style="mix-blend-mode:screen"/>
        <path fill="url(#n)" d="M146.185 123.163c-20.106 0-36.405-16.295-36.405-36.396 0-20.1 16.299-36.395 36.405-36.395 20.107 0 36.406 16.294 36.406 36.395 0 20.101-16.299 36.396-36.406 36.396z"/>
        <path fill="url(#o)" d="M116.693 100.69a11.096 11.096 0 0 0-4.034 9.366s30.804 10.697 32.341 8.782c1.538-1.916 3.333-24.736 3.333-24.736l-3.741.756-4.75 13.51s-22.408-8.303-23.149-7.678z" style="mix-blend-mode:screen"/>
        <path fill="#92FFF9" d="M144.577 94.858l3.741-.756-.63 7.138-5.224-.368 2.113-6.014z" style="mix-blend-mode:screen"/>
        <path fill="#F9BF5A" d="M148.318 94.101s1.513-6.961-.348-12.325c0 0-4.316.197-4.407 1.276-.474 5.378 1.009 11.795 1.009 11.795l3.746-.746z" style="mix-blend-mode:screen"/>
        <path fill="#1342D8" d="M101.133 98.482c-14.976 0-20.754 7.324-20.754 11.942 0 4.617 4.457 40.655 4.457 40.655h34.091s5.753-37.989 5.97-47.823c.015-.908-11.34-4.774-23.764-4.774z"/>
        <path fill="url(#p)" d="M84.836 151.079v76.042h9.394l8.446-62.23 7.896 62.23h9.318l-.963-76.042h-34.09z"/>
        <path fill="url(#q)" d="M113.527 77.457s1.865 14.865.131 15.828a7.911 7.911 0 0 1-3.585.928l-.146 9.396s-9.939-.479-11.265-4.975l.373-8.615s-2.52-3.171-3.323-9.114c-.801-5.944 5.406-14.115 17.512-9.7 0 0 4.73 1.528.303 6.252z" style="mix-blend-mode:screen"/>
        <path fill="#0C0514" d="M114.227 69.885h-.03c-5.622-2.047-11.274-1.255-15.505 2.157-3.126 2.52-4.961 6.17-4.563 9.074a14.21 14.21 0 0 0 4.74 8.917l.05.04 1.472-.554-.126-.126c-.035-.03-3.176-3.024-2.843-4.743a1.28 1.28 0 0 1 .887-.933 1.513 1.513 0 0 1 1.432.09c1.634 1.01 2.017 5.087 2.017 5.127v.106h2.017l-.504-3.68c2.364-1.512 1.956-4.607 1.81-5.383 2.99.136 8.415-2.374 8.476-2.405 1.578-1.683 2.304-3.312 2.158-4.834a4.23 4.23 0 0 0-1.488-2.853z"/>
        <path fill="url(#r)" d="M114.227 69.885h-.03c-5.622-2.047-11.274-1.255-15.505 2.157-3.126 2.52-4.961 6.17-4.563 9.074a14.21 14.21 0 0 0 4.74 8.917l.05.04 1.472-.554-.126-.126c-.035-.03-3.176-3.024-2.843-4.743a1.28 1.28 0 0 1 .887-.933 1.513 1.513 0 0 1 1.432.09c1.634 1.01 2.017 5.087 2.017 5.127v.106h2.017l-.504-3.68c2.364-1.512 1.956-4.607 1.81-5.383 2.99.136 8.415-2.374 8.476-2.405 1.578-1.683 2.304-3.312 2.158-4.834a4.23 4.23 0 0 0-1.488-2.853z" style="mix-blend-mode:screen"/>
        <path fill="#17042B" d="M110.602 227.121v7.421h20.229s-.675-6.554-10.946-7.421h-9.283zM84.836 227.121v7.421h20.219s1.16-6.241-10.83-7.421h-9.39z" style="mix-blend-mode:screen"/>
        <path fill="#1342D8" d="M84.009 103.654c-8.375 7.294-18.188 20.164-18.233 22.145-.076 3.393 4.034 28.017 4.034 28.017l5.546-1.512 1.75-25.925 16.856-15.269s-4.86-11.892-9.953-7.456z"/>
        <path fill="#92FFF9" d="M75.356 152.319l-5.526 1.497-1.286-7.864 7.311-1.008-.499 7.375z" style="mix-blend-mode:screen"/>
        <path fill="#F9BF5A" d="M69.83 153.816s-.57 2.077 2.083 6.276c0 0 5.36.288 5.284-.791a18.38 18.38 0 0 0-1.84-6.982l-5.527 1.497z" style="mix-blend-mode:screen"/>
        <path fill="#92FFF9" d="M109.906 99.682v3.927s-9.938-.479-11.264-4.976v-.221a17.57 17.57 0 0 0-3.43.504s2.098 9.119 14.578 12.047c0 0 2.975-7.561 2.088-10.616a19.326 19.326 0 0 0-1.972-.665z" style="mix-blend-mode:screen"/>
        <path fill="#24ECA5" d="M60.452 160.859h7.795v-.419a3.023 3.023 0 0 1 3.025-3.024h6.807a3.023 3.023 0 0 1 3.026 3.024v.419h9.076a1.553 1.553 0 0 1 1.553 1.552V185.6a1.552 1.552 0 0 1-1.553 1.552H60.47a1.55 1.55 0 0 1-1.552-1.552v-23.189a1.554 1.554 0 0 1 1.533-1.552zm19.16-.419a1.537 1.537 0 0 0-1.512-1.512h-6.828a1.537 1.537 0 0 0-1.512 1.512v.419h9.872l-.02-.419z" style="mix-blend-mode:screen"/>
        <path fill="#92FFF9" d="M148.071 93.088h-6.126v-15.48h6.126v15.48z" style="mix-blend-mode:screen"/>
        <path fill="#48EDDF" d="M145.651 66.22a12.515 12.515 0 0 0-8.027-14.893 12.523 12.523 0 0 0-15.536 6.705 12.519 12.519 0 0 0 .873 11.853l-2.33 4.37a.543.543 0 0 0 .565.786l6.106-1.007a12.527 12.527 0 0 0 18.364-7.814h-.015zM255.82 160.803a12.515 12.515 0 0 0-8.024-14.896 12.527 12.527 0 0 0-15.538 6.702 12.525 12.525 0 0 0 .871 11.854l-2.329 4.37a.541.541 0 0 0 .565.787l6.106-1.009a12.527 12.527 0 0 0 18.349-7.808zM170.57 176.617a12.519 12.519 0 0 0-2.902-11.526 12.514 12.514 0 0 0-11.229-3.905 12.521 12.521 0 0 0-10.492 13.274 12.502 12.502 0 0 0 1.933 5.816l-2.33 4.371a.54.54 0 0 0 .565.786l6.106-1.008a12.516 12.516 0 0 0 18.349-7.808z" style="mix-blend-mode:screen"/>
        <path fill="url(#s)" d="M173.026 220.417c-8.77 0-15.878-7.107-15.878-15.874s7.108-15.874 15.878-15.874c8.769 0 15.878 7.107 15.878 15.874s-7.109 15.874-15.878 15.874z"/>
        <path fill="#17042B" d="M180.791 194.688l-11.093 1.008a1.105 1.105 0 0 0-.746.374 1.075 1.075 0 0 0-.263.791l1.674 21.383a1.094 1.094 0 0 0 .5.829 1.092 1.092 0 0 0 .962.099c3.268-1.23 11.698-2.394 11.799-2.485.101-.091-1.351-16.807-1.669-21.006a1.084 1.084 0 0 0-1.164-.993z"/>
        <path fill="#3F02C4" d="M127.998 206.595c-14.986 0-20.764 7.335-20.764 11.957 0 4.623 4.457 40.67 4.457 40.67h34.111s2.335-32.735 4.427-42.343c.575-2.647-9.797-10.284-22.231-10.284z"/>
        <path fill="url(#t)" d="M107.234 218.552s3.182 29.534 5.098 30.069c1.916.534 21.535 12.491 21.535 12.491l2.219-3.528-15.571-19.469-.847-20.42s-8.4-4.562-12.434.857z" style="mix-blend-mode:screen"/>
        <path fill="url(#u)" d="M145.656 211.399a11.091 11.091 0 0 0-8.068 6.251s21.813 24.256 24.087 23.319c2.274-.938 17.648-17.27 17.648-17.27l-2.632-2.763-13.866 9.074s-16.216-18.818-17.169-18.611z" style="mix-blend-mode:screen"/>
        <path fill="url(#v)" d="M111.692 259.227v76.083h9.403l8.451-62.266 7.896 62.266h9.324l-.963-76.083h-34.111z" style="mix-blend-mode:screen"/>
        <path fill="#F9BF5A" d="M136.534 257.821s9.898 4.874 10.735 14.175l-1.008.882-12.505-11.942 2.778-3.115zM176.696 220.916l-2.279-12.471 2.839-2.152s7.321 9.577 2.072 17.386l-2.632-2.763z" style="mix-blend-mode:screen"/>
        <path fill="url(#w)" d="M137.452 187.202s2.874 14.71 1.205 15.794a7.922 7.922 0 0 1-3.529 1.169l1.664 7.995s-9.843 1.512-12.036-2.636l-.928-8.797a13.993 13.993 0 0 1-5.39-8.569c-1.215-5.878 6.751-16.02 19.13-12.451.01-.031 3.984 2.454-.116 7.495z" style="mix-blend-mode:screen"/>
        <path fill="#CC5C09" d="M137.639 179.581h-.03c-5.754-1.654-11.34-.505-15.334 3.206-2.95 2.732-4.538 6.497-3.938 9.376a14.229 14.229 0 0 0 5.335 8.569l.055.036 1.432-.656-.136-.111c-.035-.03-3.378-2.818-3.156-4.536a1.273 1.273 0 0 1 .817-1.009 1.547 1.547 0 0 1 1.437 0c1.699.903 2.359 4.945 2.369 4.986v.101l2.017-.152-.761-3.619c2.264-1.684 1.644-4.733 1.442-5.495 3-.07 8.239-2.944 8.305-2.979 1.462-1.789 2.077-3.463 1.825-4.975a4.188 4.188 0 0 0-1.679-2.742z"/>
        <path fill="url(#x)" d="M137.639 179.581h-.03c-5.754-1.654-11.34-.505-15.334 3.206-2.95 2.732-4.538 6.497-3.938 9.376a14.229 14.229 0 0 0 5.335 8.569l.055.036 1.432-.656-.136-.111c-.035-.03-3.378-2.818-3.156-4.536a1.273 1.273 0 0 1 .817-1.009 1.547 1.547 0 0 1 1.437 0c1.699.903 2.359 4.945 2.369 4.986v.101l2.017-.152-.761-3.619c2.264-1.684 1.644-4.733 1.442-5.495 3-.07 8.239-2.944 8.305-2.979 1.462-1.789 2.077-3.463 1.825-4.975a4.188 4.188 0 0 0-1.679-2.742z" style="mix-blend-mode:screen"/>
        <path fill="#92FFF9" d="M136.535 257.821l-2.784 3.115-5.869-3.443 4.019-5.015 4.634 5.343zM176.696 220.916l2.633 2.763-4.493 4.708-3.157-3.589 5.017-3.882zM138.173 191.26l.157 1.009-.323.166s.136 3.024-2.37 4.164c-2.506 1.139-3.434-2.561-3.434-2.561l-6.146.464-.358-.676 12.474-2.566zm-.973 1.306l-4.089 1.008s.912 3.146 2.349 2.445c1.438-.701 1.74-3.453 1.74-3.453z" style="mix-blend-mode:screen"/>
        <path fill="url(#y)" d="M116.875 220.337a.51.51 0 0 1-.187-.106 603.794 603.794 0 0 0-.787 10.122l.979 77.272c10.432.893 11.093 7.562 11.093 7.562H107.42v-7.562h-.035l-8.022-63.238-8.572 63.238c12.182 1.195 11.002 7.562 11.002 7.562H81.241v-84.834s-4.538-36.617-4.538-41.336c0-4.032 4.31-10.056 15.127-11.71a15.205 15.205 0 0 1 3.232-.348l-.636-8.524-.116.046-.055-.041a14.414 14.414 0 0 1-5.148-8.877c-.504-2.944 1.21-6.719 4.29-9.396 4.17-3.63 9.879-4.643 15.672-2.778a4.194 4.194 0 0 1 1.674 2.793c.202 1.548-.474 3.226-2.017 4.996l-.035.025h-.03c.116.746.761 4.859 1.084 8.67h.035s1.059 6.125.066 7.118c-.605.605-2.4 1.119-4.034 1.427l1.008 5.716c7.216 2.016 12.545 6.009 13.438 8.302.731 1.467 2.37 13.913 3.232 20.784 2.491.303-5.032 13.439-6.615 13.117z" style="mix-blend-mode:screen"/>
    </g>
    <defs>
        <linearGradient id="a" x1="239.903" x2="207.077" y1="214.456" y2="187.043" gradientUnits="userSpaceOnUse">
            <stop stop-color="#13D8FF"/>
            <stop offset=".13" stop-color="#11ABD8"/>
            <stop offset=".29" stop-color="#0E78AC"/>
            <stop offset=".45" stop-color="#0C4D88"/>
            <stop offset=".6" stop-color="#0A2D6C"/>
            <stop offset=".75" stop-color="#091557"/>
            <stop offset=".88" stop-color="#08074B"/>
            <stop offset="1" stop-color="#080247"/>
        </linearGradient>
        <linearGradient id="b" x1="215.667" x2="198.043" y1="168.114" y2="169.032" gradientUnits="userSpaceOnUse">
            <stop stop-color="#FFE0A1"/>
            <stop offset=".13" stop-color="#FDDB9B"/>
            <stop offset=".29" stop-color="#F9CC8B"/>
            <stop offset=".48" stop-color="#F1B370"/>
            <stop offset=".68" stop-color="#E6914A"/>
            <stop offset=".9" stop-color="#D8661A"/>
            <stop offset="1" stop-color="#D14F01"/>
        </linearGradient>
        <radialGradient id="c" cx="0" cy="0" r="1" gradientTransform="matrix(-25.89755 -1.93316 1.93265 -25.89077 250.679 198.861)" gradientUnits="userSpaceOnUse">
            <stop stop-color="#00FFCF"/>
            <stop offset=".12" stop-color="#01E7CF" stop-opacity=".84"/>
            <stop offset=".37" stop-color="#02BBCF" stop-opacity=".54"/>
            <stop offset=".59" stop-color="#0398CF" stop-opacity=".31"/>
            <stop offset=".77" stop-color="#037FCF" stop-opacity=".14"/>
            <stop offset=".91" stop-color="#0470CF" stop-opacity=".04"/>
            <stop offset="1" stop-color="#046ACF" stop-opacity="0"/>
        </radialGradient>
        <linearGradient id="d" x1="-67944.2" x2="-69889.3" y1="-5840.77" y2="-7936.89" gradientUnits="userSpaceOnUse">
            <stop stop-color="#13D8FF"/>
            <stop offset=".13" stop-color="#11ABD8"/>
            <stop offset=".29" stop-color="#0E78AC"/>
            <stop offset=".45" stop-color="#0C4D88"/>
            <stop offset=".6" stop-color="#0A2D6C"/>
            <stop offset=".75" stop-color="#091557"/>
            <stop offset=".88" stop-color="#08074B"/>
            <stop offset="1" stop-color="#080247"/>
        </linearGradient>
        <linearGradient id="e" x1="24.4" x2="105.152" y1="132.211" y2="132.211" gradientUnits="userSpaceOnUse">
            <stop stop-color="#220047"/>
            <stop offset=".24" stop-color="#23004A"/>
            <stop offset=".42" stop-color="#250053"/>
            <stop offset=".57" stop-color="#280063"/>
            <stop offset=".71" stop-color="#2E0179"/>
            <stop offset=".84" stop-color="#340195"/>
            <stop offset=".96" stop-color="#3C02B8"/>
            <stop offset="1" stop-color="#3F02C4"/>
        </linearGradient>
        <linearGradient id="f" x1="68.328" x2="121.462" y1="138.784" y2="77.987" gradientUnits="userSpaceOnUse">
            <stop/>
            <stop offset=".12" stop-color="#010005"/>
            <stop offset=".27" stop-color="#030013"/>
            <stop offset=".42" stop-color="#06002A"/>
            <stop offset=".58" stop-color="#0A014B"/>
            <stop offset=".75" stop-color="#0F0175"/>
            <stop offset=".91" stop-color="#1602A7"/>
            <stop offset="1" stop-color="#1A02C4"/>
        </linearGradient>
        <linearGradient id="g" x1="538314" x2="533100" y1="68119.4" y2="68119.4" gradientUnits="userSpaceOnUse">
            <stop stop-color="#220047"/>
            <stop offset=".24" stop-color="#23004A"/>
            <stop offset=".42" stop-color="#250053"/>
            <stop offset=".57" stop-color="#280063"/>
            <stop offset=".71" stop-color="#2E0179"/>
            <stop offset=".84" stop-color="#340195"/>
            <stop offset=".96" stop-color="#3C02B8"/>
            <stop offset="1" stop-color="#3F02C4"/>
        </linearGradient>
        <linearGradient id="h" x1="528632" x2="523418" y1="72721" y2="72721" gradientUnits="userSpaceOnUse">
            <stop stop-color="#220047"/>
            <stop offset=".24" stop-color="#23004A"/>
            <stop offset=".42" stop-color="#250053"/>
            <stop offset=".57" stop-color="#280063"/>
            <stop offset=".71" stop-color="#2E0179"/>
            <stop offset=".84" stop-color="#340195"/>
            <stop offset=".96" stop-color="#3C02B8"/>
            <stop offset="1" stop-color="#3F02C4"/>
        </linearGradient>
        <linearGradient id="i" x1="241.615" x2="143.786" y1="271.22" y2="369.07" gradientUnits="userSpaceOnUse">
            <stop stop-color="#3F86C4"/>
            <stop offset=".31" stop-color="#355899"/>
            <stop offset=".78" stop-color="#27195E"/>
            <stop offset="1" stop-color="#220047"/>
        </linearGradient>
        <linearGradient id="j" x1="531620" x2="519477" y1="76167.3" y2="71830.2" gradientUnits="userSpaceOnUse">
            <stop/>
            <stop offset=".12" stop-color="#010005"/>
            <stop offset=".27" stop-color="#030013"/>
            <stop offset=".42" stop-color="#06002A"/>
            <stop offset=".58" stop-color="#0A014B"/>
            <stop offset=".75" stop-color="#0F0175"/>
            <stop offset=".91" stop-color="#1602A7"/>
            <stop offset="1" stop-color="#1A02C4"/>
        </linearGradient>
        <linearGradient id="k" x1="857849" x2="844021" y1="75831.6" y2="72159.6" gradientUnits="userSpaceOnUse">
            <stop/>
            <stop offset=".12" stop-color="#010005"/>
            <stop offset=".27" stop-color="#030013"/>
            <stop offset=".42" stop-color="#06002A"/>
            <stop offset=".58" stop-color="#0A014B"/>
            <stop offset=".75" stop-color="#0F0175"/>
            <stop offset=".91" stop-color="#1602A7"/>
            <stop offset="1" stop-color="#1A02C4"/>
        </linearGradient>
        <linearGradient id="l" x1="125.189" x2="182.56" y1="150.701" y2="150.701" gradientUnits="userSpaceOnUse">
            <stop stop-color="#220047"/>
            <stop offset=".12" stop-color="#240055"/>
            <stop offset=".35" stop-color="#2A0179"/>
            <stop offset=".65" stop-color="#3301B4"/>
            <stop offset="1" stop-color="#3F02FF"/>
        </linearGradient>
        <linearGradient id="m" x1="524437" x2="517908" y1="94424.3" y2="94424.3" gradientUnits="userSpaceOnUse">
            <stop stop-color="#220047"/>
            <stop offset=".12" stop-color="#240055"/>
            <stop offset=".35" stop-color="#2A0179"/>
            <stop offset=".65" stop-color="#3301B4"/>
            <stop offset="1" stop-color="#3F02FF"/>
        </linearGradient>
        <radialGradient id="n" cx="0" cy="0" r="1" gradientTransform="matrix(-36.37072 -2.35836 2.35774 -36.36104 145.123 84.007)" gradientUnits="userSpaceOnUse">
            <stop stop-color="#1A18CF"/>
            <stop offset=".15" stop-color="#142DCF" stop-opacity=".74"/>
            <stop offset=".29" stop-color="#0F40CF" stop-opacity=".52"/>
            <stop offset=".44" stop-color="#0B4FCF" stop-opacity=".33"/>
            <stop offset=".59" stop-color="#085BCF" stop-opacity=".19"/>
            <stop offset=".73" stop-color="#0663CF" stop-opacity=".08"/>
            <stop offset=".87" stop-color="#0468CF" stop-opacity=".02"/>
            <stop offset="1" stop-color="#046ACF" stop-opacity="0"/>
        </radialGradient>
        <linearGradient id="o" x1="122.695" x2="158.475" y1="103.436" y2="103.556" gradientUnits="userSpaceOnUse">
            <stop stop-color="#080209"/>
            <stop offset=".06" stop-color="#080221"/>
            <stop offset=".13" stop-color="#080236"/>
            <stop offset=".2" stop-color="#080243"/>
            <stop offset=".27" stop-color="#080247"/>
            <stop offset=".47" stop-color="#0C4C87"/>
            <stop offset=".65" stop-color="#0F88BA"/>
            <stop offset=".81" stop-color="#11B3E0"/>
            <stop offset=".93" stop-color="#12CEF7"/>
            <stop offset="1" stop-color="#13D8FF"/>
        </linearGradient>
        <linearGradient id="p" x1="243903" x2="243903" y1="34624.1" y2="46095.1" gradientUnits="userSpaceOnUse">
            <stop stop-color="#220047"/>
            <stop offset=".24" stop-color="#23004A"/>
            <stop offset=".42" stop-color="#250053"/>
            <stop offset=".57" stop-color="#280063"/>
            <stop offset=".71" stop-color="#2E0179"/>
            <stop offset=".84" stop-color="#340195"/>
            <stop offset=".96" stop-color="#3C02B8"/>
            <stop offset="1" stop-color="#3F02C4"/>
        </linearGradient>
        <linearGradient id="q" x1="148516" x2="147516" y1="-21030.3" y2="-19847.8" gradientUnits="userSpaceOnUse">
            <stop stop-color="#FFE0A1"/>
            <stop offset=".13" stop-color="#FDDB9B"/>
            <stop offset=".29" stop-color="#F9CC8B"/>
            <stop offset=".48" stop-color="#F1B370"/>
            <stop offset=".68" stop-color="#E6914A"/>
            <stop offset=".9" stop-color="#D8661A"/>
            <stop offset="1" stop-color="#D14F01"/>
        </linearGradient>
        <linearGradient id="r" x1="92.615" x2="114.436" y1="85.009" y2="75.415" gradientUnits="userSpaceOnUse">
            <stop stop-color="#0C0514" stop-opacity="0"/>
            <stop offset=".21" stop-color="#0C0A18" stop-opacity=".08"/>
            <stop offset=".48" stop-color="#0B1924" stop-opacity=".31"/>
            <stop offset=".79" stop-color="#0B3237" stop-opacity=".68"/>
            <stop offset="1" stop-color="#0A4748"/>
        </linearGradient>
        <radialGradient id="s" cx="0" cy="0" r="1" gradientTransform="matrix(-1000 0 0 -999.737 -46276.7 17948.4)" gradientUnits="userSpaceOnUse">
            <stop stop-color="#00FFCF"/>
            <stop offset=".12" stop-color="#01E7CF" stop-opacity=".84"/>
            <stop offset=".37" stop-color="#02BBCF" stop-opacity=".54"/>
            <stop offset=".59" stop-color="#0398CF" stop-opacity=".31"/>
            <stop offset=".77" stop-color="#037FCF" stop-opacity=".14"/>
            <stop offset=".91" stop-color="#0470CF" stop-opacity=".04"/>
            <stop offset="1" stop-color="#046ACF" stop-opacity="0"/>
        </radialGradient>
        <linearGradient id="t" x1="-69487" x2="-72305.3" y1="30130.3" y2="28331.8" gradientUnits="userSpaceOnUse">
            <stop stop-color="#13D8FF"/>
            <stop offset=".13" stop-color="#11ABD8"/>
            <stop offset=".29" stop-color="#0E78AC"/>
            <stop offset=".45" stop-color="#0C4D88"/>
            <stop offset=".6" stop-color="#0A2D6C"/>
            <stop offset=".75" stop-color="#091557"/>
            <stop offset=".88" stop-color="#08074B"/>
            <stop offset="1" stop-color="#080247"/>
        </linearGradient>
        <linearGradient id="u" x1="142.481" x2="168.407" y1="235.692" y2="218.195" gradientUnits="userSpaceOnUse">
            <stop stop-color="#080209"/>
            <stop offset=".06" stop-color="#080221"/>
            <stop offset=".13" stop-color="#080236"/>
            <stop offset=".2" stop-color="#080243"/>
            <stop offset=".27" stop-color="#080247"/>
            <stop offset=".34" stop-color="#091053"/>
            <stop offset=".49" stop-color="#0B3371"/>
            <stop offset=".68" stop-color="#0E6DA3"/>
            <stop offset=".92" stop-color="#12BCE7"/>
            <stop offset="1" stop-color="#13D8FF"/>
        </linearGradient>
        <linearGradient id="v" x1="129.229" x2="129.229" y1="259.222" y2="335.31" gradientUnits="userSpaceOnUse">
            <stop stop-color="#220047"/>
            <stop offset=".45" stop-color="#313C86"/>
            <stop offset=".82" stop-color="#3B67B3"/>
            <stop offset="1" stop-color="#3F78C4"/>
        </linearGradient>
        <linearGradient id="w" x1="-57248.7" x2="-58007.1" y1="-41971.6" y2="-40481.7" gradientUnits="userSpaceOnUse">
            <stop stop-color="#FFE0A1"/>
            <stop offset=".13" stop-color="#FDDB9B"/>
            <stop offset=".29" stop-color="#F9CC8B"/>
            <stop offset=".48" stop-color="#F1B370"/>
            <stop offset=".68" stop-color="#E6914A"/>
            <stop offset=".9" stop-color="#D8661A"/>
            <stop offset="1" stop-color="#D14F01"/>
        </linearGradient>
        <linearGradient id="x" x1="103.388" x2="124.742" y1="169.775" y2="158.736" gradientUnits="userSpaceOnUse">
            <stop stop-color="#FF0514" stop-opacity="0"/>
            <stop offset=".1" stop-color="#F90B19" stop-opacity=".02"/>
            <stop offset=".22" stop-color="#EA1B26" stop-opacity=".09"/>
            <stop offset=".36" stop-color="#D0353B" stop-opacity=".19"/>
            <stop offset=".51" stop-color="#AB5A59" stop-opacity=".34"/>
            <stop offset=".68" stop-color="#7D8A7F" stop-opacity=".53"/>
            <stop offset=".84" stop-color="#45C3AD" stop-opacity=".76"/>
            <stop offset="1" stop-color="#0AFFDE"/>
        </linearGradient>
        <linearGradient id="y" x1="152.564" x2="54.734" y1="190.802" y2="288.657" gradientUnits="userSpaceOnUse">
            <stop stop-color="#3F59C4"/>
            <stop offset=".04" stop-color="#3C50B8"/>
            <stop offset=".16" stop-color="#343895"/>
            <stop offset=".29" stop-color="#2E2479"/>
            <stop offset=".43" stop-color="#281463"/>
            <stop offset=".58" stop-color="#250953"/>
            <stop offset=".76" stop-color="#23024A"/>
            <stop offset="1" stop-color="#220047"/>
        </linearGradient>
    </defs>
</svg>
