<svg xmlns="http://www.w3.org/2000/svg" width="144" height="60" fill="none" viewBox="0 0 144 60">
    <path fill="#8F9092" d="M16.65 19.681H6.714l-2.079 5.974H0L9.691 0h4l9.708 25.655h-4.651L16.65 19.68zm-8.686-3.594H15.4L11.682 5.445 7.964 16.087zm18.36 9.568V0h7.577c2.267 0 4.276.505 6.026 1.515 1.762 1.01 3.124 2.444 4.088 4.3.963 1.856 1.445 3.982 1.445 6.378v1.286c0 2.432-.488 4.57-1.463 6.414-.963 1.844-2.343 3.265-4.14 4.264-1.786.998-3.836 1.498-6.15 1.498h-7.383zm4.458-22.06v18.5h2.907c2.338 0 4.13-.728 5.374-2.184 1.257-1.469 1.898-3.571 1.921-6.308v-1.428c0-2.784-.605-4.91-1.815-6.378s-2.966-2.203-5.268-2.203h-3.119zm33.09 16.087h-9.937l-2.08 5.973h-4.633L56.912 0h4l9.709 25.655h-4.652l-2.096-5.974zm-8.686-3.595h7.435L58.904 5.445l-3.718 10.642zm18.36 9.568V0h8.792c2.902 0 5.11.581 6.625 1.744 1.516 1.163 2.273 2.896 2.273 5.198 0 1.175-.317 2.232-.951 3.172-.635.94-1.562 1.668-2.784 2.185 1.386.376 2.455 1.086 3.207 2.132.763 1.034 1.145 2.279 1.145 3.735 0 2.408-.775 4.258-2.326 5.55-1.539 1.293-3.747 1.939-6.625 1.939h-9.356zm4.458-11.577v8.018h4.95c1.399 0 2.491-.347 3.278-1.04.787-.693 1.18-1.656 1.18-2.89 0-2.666-1.362-4.029-4.087-4.088h-5.321zm0-3.277h4.37c1.386 0 2.466-.311 3.242-.934.787-.634 1.18-1.527 1.18-2.678 0-1.269-.364-2.185-1.092-2.749-.717-.564-1.839-.846-3.366-.846h-4.334v7.207zM11.61 54.78c0-.846-.3-1.498-.899-1.956-.59-.458-1.66-.92-3.21-1.387-1.551-.467-2.785-.987-3.701-1.56-1.753-1.1-2.63-2.537-2.63-4.308 0-1.55.63-2.828 1.89-3.832 1.269-1.005 2.912-1.507 4.93-1.507 1.338 0 2.532.247 3.58.74 1.049.494 1.873 1.199 2.472 2.115.599.907.898 1.916.898 3.026h-3.33c0-1.004-.317-1.788-.951-2.352-.626-.573-1.525-.86-2.696-.86-1.093 0-1.943.234-2.55.701-.6.467-.9 1.12-.9 1.956 0 .705.327 1.295.979 1.77.652.468 1.726.926 3.224 1.375 1.498.44 2.7.947 3.608 1.52.907.564 1.572 1.216 1.995 1.956.423.731.634 1.59.634 2.577 0 1.603-.616 2.88-1.85 3.832C11.88 59.529 10.213 60 8.108 60c-1.392 0-2.674-.255-3.845-.767-1.163-.52-2.07-1.233-2.723-2.14-.643-.908-.964-1.965-.964-3.172h3.343c0 1.093.361 1.938 1.084 2.537.722.6 1.757.899 3.105.899 1.163 0 2.035-.233 2.617-.7.59-.476.885-1.102.885-1.877zm21.633-4.163c0 1.886-.326 3.542-.978 4.97-.652 1.418-1.586 2.51-2.801 3.276-1.207.758-2.6 1.137-4.176 1.137-1.56 0-2.952-.379-4.176-1.136-1.216-.767-2.159-1.855-2.828-3.265-.661-1.41-.996-3.035-1.005-4.876V49.64c0-1.876.33-3.532.991-4.968.67-1.436 1.608-2.533 2.815-3.29 1.216-.767 2.608-1.15 4.176-1.15s2.956.378 4.163 1.136c1.216.749 2.154 1.832 2.815 3.25.66 1.41.995 3.053 1.004 4.93v1.07zM29.9 49.613c0-2.132-.406-3.766-1.216-4.903-.802-1.136-1.943-1.705-3.423-1.705-1.445 0-2.577.569-3.396 1.705-.81 1.128-1.225 2.727-1.242 4.797v1.11c0 2.115.41 3.749 1.229 4.903.828 1.154 1.973 1.731 3.436 1.731 1.48 0 2.616-.564 3.41-1.691.8-1.128 1.202-2.775 1.202-4.943v-1.004zm10.017 7.453h8.735v2.67H36.573V40.495h3.344v16.571zm25.055-16.571v12.858c0 2.044-.656 3.665-1.969 4.863C61.7 59.406 59.96 60 57.783 60c-2.202 0-3.951-.586-5.246-1.758-1.295-1.18-1.943-2.814-1.943-4.902V40.495h3.33v12.871c0 1.286.327 2.269.978 2.947.652.678 1.613 1.018 2.881 1.018 2.573 0 3.86-1.357 3.86-4.07V40.494h3.33zm17.484 2.696h-6v16.545H73.14V43.19h-5.947v-2.696h15.264v2.696zm6.065 16.545h-3.33V40.495h3.33v19.24zm19.466-9.119c0 1.886-.326 3.542-.978 4.97-.652 1.418-1.586 2.51-2.801 3.276-1.207.758-2.599 1.137-4.176 1.137-1.56 0-2.952-.379-4.176-1.136-1.216-.767-2.159-1.855-2.828-3.265-.661-1.41-.996-3.035-1.005-4.876V49.64c0-1.876.33-3.532.992-4.968.669-1.436 1.607-2.533 2.814-3.29 1.216-.767 2.608-1.15 4.176-1.15s2.956.378 4.163 1.136c1.216.749 2.154 1.832 2.815 3.25.66 1.41.995 3.053 1.004 4.93v1.07zm-3.343-1.004c0-2.132-.406-3.766-1.216-4.903-.802-1.136-1.943-1.705-3.423-1.705-1.445 0-2.577.569-3.396 1.705-.81 1.128-1.225 2.727-1.242 4.797v1.11c0 2.115.41 3.749 1.229 4.903.828 1.154 1.973 1.731 3.436 1.731 1.48 0 2.616-.564 3.409-1.691.802-1.128 1.203-2.775 1.203-4.943v-1.004zm21.937 10.123h-3.344l-8.576-13.651v13.65h-3.344v-19.24h3.344l8.603 13.704V40.495h3.317v19.24zm14.007-4.956c0-.846-.299-1.498-.898-1.956-.59-.458-1.661-.92-3.211-1.387-1.551-.467-2.784-.987-3.701-1.56-1.753-1.1-2.629-2.537-2.629-4.308 0-1.55.63-2.828 1.889-3.832 1.269-1.005 2.912-1.507 4.93-1.507 1.339 0 2.532.247 3.581.74 1.048.494 1.872 1.199 2.471 2.115.599.907.899 1.916.899 3.026h-3.331c0-1.004-.317-1.788-.951-2.352-.626-.573-1.524-.86-2.696-.86-1.092 0-1.942.234-2.55.701-.599.467-.899 1.12-.899 1.956 0 .705.326 1.295.978 1.77.652.468 1.727.926 3.224 1.375 1.498.44 2.701.947 3.608 1.52.908.564 1.573 1.216 1.996 1.956.422.731.634 1.59.634 2.577 0 1.603-.617 2.88-1.85 3.832-1.225.943-2.89 1.414-4.995 1.414-1.392 0-2.674-.255-3.846-.767-1.163-.52-2.07-1.233-2.722-2.14-.643-.908-.965-1.965-.965-3.172h3.343c0 1.093.362 1.938 1.084 2.537.722.6 1.758.899 3.106.899 1.162 0 2.035-.233 2.616-.7.59-.476.885-1.102.885-1.877z" opacity=".9"/>
</svg>
