<svg xmlns="http://www.w3.org/2000/svg" width="304" height="61" fill="none" viewBox="0 0 304 61">
    <g fill="#8F9092" clip-path="url(#a)">
        <path d="M18.36 25.633l11.827-11.846L42.02 25.639l6.882-6.893L30.187 0 11.478 18.74l6.882 6.893zM13.5 30.499l-6.88-6.893-6.883 6.893 6.882 6.893 6.882-6.893zM18.36 35.367l11.827 11.846L42.02 35.36l6.886 6.89-.004.003L30.187 61 11.478 42.26l-.01-.01 6.892-6.883zM53.756 37.395l6.882-6.893-6.881-6.893-6.882 6.893 6.881 6.893z"/>
        <path d="M37.167 30.497h.003l-6.983-6.995-5.16 5.17-.594.593-1.223 1.225-.01.01.01.01 6.977 6.988 6.983-6.994.004-.004-.007-.003zM71.366 14.78h14.968c3.714 0 6.523.956 8.427 2.865 1.474 1.48 2.21 3.313 2.21 5.5v.092c0 .924-.114 1.74-.344 2.45a7.621 7.621 0 0 1-.917 1.917 7.301 7.301 0 0 1-1.329 1.501 8.913 8.913 0 0 1-1.627 1.11c1.867.709 3.337 1.67 4.409 2.888 1.071 1.217 1.607 2.904 1.607 5.06v.092c0 1.48-.283 2.773-.852 3.882a7.538 7.538 0 0 1-2.441 2.773c-1.06.74-2.334 1.294-3.823 1.664-1.49.37-3.14.554-4.95.554H71.365V14.78zm13.471 13.078c1.57 0 2.815-.269 3.737-.808.923-.54 1.384-1.41 1.384-2.611v-.093c0-1.078-.4-1.901-1.2-2.472-.8-.57-1.953-.855-3.46-.855h-7.012v6.839h6.551zM86.73 40.89c1.569 0 2.798-.284 3.69-.855.892-.57 1.339-1.456 1.339-2.657v-.092c0-1.079-.416-1.933-1.246-2.565-.83-.631-2.168-.947-4.014-.947h-8.212v7.116h8.443zM107.685 14.78h7.105V47.13h-7.105V14.78zM125.551 14.78h6.551l15.132 19.918V14.781h7.013v32.348h-6.043l-15.641-20.564v20.564h-7.012V14.78zM175.757 14.55h6.551l13.841 32.579h-7.428l-2.953-7.255h-13.656l-2.952 7.255h-7.244l13.841-32.58zm7.474 19.038l-4.291-10.49-4.289 10.49h8.58zM203.819 14.78h6.552l15.131 19.918V14.781h7.013v32.348h-6.043l-15.641-20.564v20.564h-7.012V14.78zM258.085 47.683c-2.37 0-4.568-.432-6.598-1.294-2.03-.861-3.783-2.04-5.259-3.535-1.477-1.494-2.631-3.258-3.46-5.29-.831-2.035-1.246-4.206-1.246-6.517v-.092c0-2.31.415-4.475 1.246-6.493a16.676 16.676 0 0 1 3.46-5.314c1.475-1.525 3.244-2.727 5.305-3.605 2.06-.877 4.337-1.316 6.828-1.316 1.506 0 2.883.123 4.128.37 1.246.246 2.376.585 3.392 1.016a14.8 14.8 0 0 1 2.815 1.57 19.2 19.2 0 0 1 2.398 2.034l-4.52 5.222c-1.263-1.14-2.546-2.034-3.853-2.68-1.308-.647-2.776-.97-4.406-.97-1.354 0-2.607.262-3.76.785a8.9 8.9 0 0 0-2.976 2.172 10.147 10.147 0 0 0-1.938 3.211 10.955 10.955 0 0 0-.691 3.905v.092c0 1.386.231 2.696.691 3.928.462 1.233 1.099 2.31 1.915 3.235a8.932 8.932 0 0 0 2.952 2.195c1.154.54 2.423.809 3.807.809 1.846 0 3.405-.34 4.682-1.017 1.276-.677 2.546-1.601 3.806-2.773l4.522 4.575a23.473 23.473 0 0 1-2.584 2.403 15.33 15.33 0 0 1-2.93 1.826c-1.06.508-2.223.894-3.482 1.155-1.262.261-2.677.393-4.244.393zM279.687 14.78H304v6.332h-17.3v6.562h15.225v6.33H286.7v6.794h17.532v6.33h-24.545V14.782z"/>
    </g>
    <defs>
        <clipPath id="a">
            <path fill="#fff" d="M0 0h304v61H0z"/>
        </clipPath>
    </defs>
</svg>
