<svg xmlns="http://www.w3.org/2000/svg" width="218" height="44" fill="none" viewBox="0 0 218 44">
    <path fill="#8F9092" fill-rule="evenodd" d="M33.14 13.506a15.123 15.123 0 0 0-5.02-3.845c-1.931-.918-3.891-1.378-5.88-1.378-2.486 0-4.762.593-6.827 1.78a12.92 12.92 0 0 0-4.876 4.906c-1.186 2.086-1.779 4.372-1.779 6.859s.593 4.773 1.779 6.858a13.13 13.13 0 0 0 4.876 4.936c2.065 1.205 4.341 1.807 6.827 1.807 1.912 0 3.834-.42 5.766-1.262a16.543 16.543 0 0 0 5.134-3.5l4.532 5.05a23.705 23.705 0 0 1-7.343 5.079c-2.792 1.243-5.622 1.865-8.49 1.865-3.863 0-7.401-.918-10.614-2.755-3.212-1.837-5.737-4.333-7.572-7.49C1.817 29.26.899 25.77.899 21.944c0-3.827.937-7.308 2.811-10.446 1.874-3.137 4.427-5.605 7.659-7.403 3.231-1.798 6.817-2.698 10.756-2.698 2.869 0 5.68.574 8.433 1.722 2.754 1.148 5.106 2.736 7.057 4.764l-4.475 5.624zM43.983 1.913h7.649v40.174h-7.65V1.913zm33.675 0c5.048 0 8.959 1.205 11.732 3.616 2.772 2.41 4.159 5.815 4.159 10.215 0 4.592-1.387 8.16-4.16 10.704-2.772 2.544-6.683 3.816-11.731 3.816h-8.816v11.823h-7.649V1.913h16.465zm-.44 21.58c2.907 0 5.135-.632 6.683-1.895 1.55-1.262 2.324-3.137 2.324-5.624 0-2.449-.775-4.285-2.323-5.51-1.55-1.224-3.777-1.836-6.684-1.836h-8.376v14.864h8.376zm22.22-21.58h7.65v16.643h21.035V1.913h7.649v40.174h-7.649v-16.3h-21.035v16.3h-7.65V1.913zm45.895 0h28.685v6.715h-21.035v9.928h19.122v6.715h-19.122v10.101h21.035v6.715h-28.685V1.913zm63.373 40.174l-6.941-11.88c-.306.038-.784.057-1.434.057h-9.103v11.823h-7.649V1.913h16.752c5.201 0 9.217 1.205 12.047 3.616 2.83 2.41 4.245 5.815 4.245 10.215 0 3.138-.679 5.816-2.036 8.035-1.358 2.22-3.337 3.884-5.938 4.993l8.835 13.315h-8.778zm-17.478-18.595h9.064c2.907 0 5.125-.631 6.655-1.894 1.53-1.262 2.295-3.137 2.295-5.624 0-2.449-.765-4.285-2.295-5.51-1.53-1.224-3.748-1.836-6.655-1.836h-9.064v14.864z" clip-rule="evenodd"/>
</svg>
