<svg xmlns="http://www.w3.org/2000/svg" width="227" height="82" fill="none" viewBox="0 0 227 82">
    <path fill="#343434" d="M24.992 0l-.546 1.868v54.208l.546.549L49.985 41.75 24.992 0z"/>
    <path fill="#8F9092" d="M24.993 0L0 41.751l24.993 14.874V0z"/>
    <path fill="#3C3C3B" d="M24.992 61.39l-.307.377v19.31l.307.905L50 46.522 24.992 61.39z"/>
    <path fill="#8F9092" d="M24.993 81.982V61.389L0 46.523l24.993 35.459z"/>
    <path fill="#141414" d="M24.992 56.624l24.992-14.873-24.992-11.437v26.31z"/>
    <path fill="#393939" d="M0 41.752l24.992 14.873v-26.31L0 41.752z"/>
    <path fill="#8F9092" d="M80.522 42.018a.651.651 0 0 1-.652.644H67.312c.313 3.1 2.648 5.93 5.932 5.93 2.245 0 3.911-.858 5.165-2.648.182-.247.454-.404.8-.255.19.082.323.255.356.453.033.206-.025.322-.083.437-1.262 2.203-3.779 3.283-6.246 3.283-4.224 0-7.236-3.778-7.236-7.82 0-4.04 3.012-7.818 7.236-7.818 4.225-.008 7.277 3.76 7.286 7.794zm-1.345-.61c-.272-3.101-2.649-5.93-5.933-5.93s-5.619 2.829-5.932 5.93h11.865zm16.584-6.88c.363 0 .627.314.627.628a.611.611 0 0 1-.627.627h-3.366v13.205a.643.643 0 0 1-.627.627.637.637 0 0 1-.627-.627V35.783h-3.235a.612.612 0 0 1-.627-.627c0-.314.273-.627.627-.627h3.235v-4.834c0-.305.206-.585.503-.635.42-.066.751.223.751.619v4.85h3.366zm20.537 6.385v8a.637.637 0 0 1-.627.628.611.611 0 0 1-.627-.627v-8.001c0-2.697-1.526-5.394-4.538-5.394-3.862 0-5.528 3.373-5.305 6.83 0 .09.041.494.041.535v6.005c0 .305-.207.585-.504.635-.42.066-.75-.223-.75-.619V22.627c0-.314.272-.627.627-.627.363 0 .627.313.627.627v14.871c1.081-1.93 3.011-3.233 5.256-3.233 3.688 0 5.8 3.233 5.8 6.648zm22.517 1.105a.651.651 0 0 1-.652.644h-12.566c.314 3.1 2.649 5.93 5.932 5.93 2.245 0 3.911-.858 5.166-2.648.181-.247.453-.404.8-.255.19.082.322.255.355.453.033.206-.025.322-.083.437-1.262 2.203-3.779 3.283-6.246 3.283-4.224 0-7.236-3.778-7.236-7.82 0-4.04 3.012-7.818 7.236-7.818 4.233-.008 7.286 3.76 7.294 7.794zm-1.353-.61c-.272-3.101-2.649-5.93-5.933-5.93-3.283 0-5.618 2.829-5.932 5.93h11.865zm16.766-6.294c0 .405-.223.627-.586.677-3.688.536-5.347 3.547-5.347 7.052v6.005c0 .305-.206.585-.503.635-.421.066-.751-.223-.751-.619V35.181c0-.306.207-.586.504-.636.42-.066.75.223.75.619v2.788c1.032-1.749 3.103-3.415 5.256-3.415.314-.008.677.223.677.578zm20.627 6.904a.651.651 0 0 1-.651.644h-12.558c.313 3.1 2.648 5.93 5.932 5.93 2.244 0 3.911-.858 5.165-2.648.182-.247.454-.404.801-.255a.605.605 0 0 1 .354.453.632.632 0 0 1-.082.437c-1.263 2.203-3.779 3.283-6.246 3.283-4.225 0-7.236-3.778-7.236-7.82 0-4.04 3.011-7.818 7.236-7.818 4.224-.008 7.277 3.76 7.285 7.794zm-1.344-.61c-.273-3.101-2.649-5.93-5.933-5.93s-5.619 2.829-5.932 5.93h11.865zm21.617-6.137v13.717a.637.637 0 0 1-.627.627.611.611 0 0 1-.627-.627v-2.606c-1.031 2.07-2.88 3.546-5.215 3.546-3.729 0-5.8-3.233-5.8-6.648v-8.042c0-.313.272-.627.627-.627.363 0 .627.314.627.627v8.042c0 2.697 1.527 5.394 4.538 5.394 4.225 0 5.215-3.95 5.215-8.314v-5.122c0-.363.363-.734.808-.602.273.09.454.355.454.635zm31.767 5.593v8.041a.638.638 0 0 1-.628.627.611.611 0 0 1-.627-.627v-8.041c0-2.698-1.526-5.345-4.538-5.345-3.779 0-5.214 4.041-5.214 7.184v6.202a.638.638 0 0 1-.627.627.611.611 0 0 1-.627-.627v-8.041c0-2.698-1.527-5.345-4.539-5.345-3.82 0-5.396 3.01-5.255 7.01 0 .091.041.273 0 .314v6.046c0 .305-.207.585-.512.635-.421.066-.751-.223-.751-.619V35.181c0-.306.206-.586.504-.636.42-.066.75.223.75.619v2.293c1.081-1.93 3.012-3.192 5.256-3.192 2.558 0 4.538 1.617 5.347 4 1.031-2.334 3.053-4 5.66-4 3.688 0 5.801 3.184 5.801 6.599z"/>
</svg>
