<svg xmlns="http://www.w3.org/2000/svg" width="354" height="177" fill="none" viewBox="0 0 354 177">
    <path fill="#8F9092" fill-rule="evenodd" d="M105.743 32.736a4.15 4.15 0 0 1 5.1 0c16.015 12.458 34.311 12.358 41.219 12.32.346-.002.664-.004.95-.004 1.117 0 2.186.45 2.968 1.249a4.185 4.185 0 0 1 1.195 3c-.324 20.033-1.186 34.593-2.863 45.482-1.678 10.897-4.217 18.445-8.113 24.232-3.923 5.826-8.967 9.476-14.807 12.985-1.95 1.171-3.956 2.312-6.063 3.51-4.351 2.473-9.132 5.189-14.729 8.93a4.151 4.151 0 0 1-4.613 0c-5.59-3.735-10.36-6.449-14.704-8.918-2.113-1.203-4.125-2.347-6.08-3.523-5.835-3.51-10.872-7.16-14.788-12.989-3.887-5.785-6.417-13.333-8.089-24.229-1.67-10.888-2.529-25.447-2.853-45.48a4.19 4.19 0 0 1 1.195-3 4.155 4.155 0 0 1 2.968-1.249c.283 0 .598.002.94.004 6.853.038 25.151.14 41.167-12.32zM67.878 53.414c.371 17.722 1.212 30.538 2.678 40.094 1.58 10.297 3.842 16.479 6.763 20.827 2.893 4.306 6.68 7.193 12.162 10.491 1.667 1.002 3.525 2.06 5.55 3.213 3.869 2.202 8.346 4.752 13.262 7.925 4.926-3.179 9.412-5.731 13.288-7.937 2.019-1.148 3.872-2.202 5.536-3.202 5.489-3.298 9.284-6.187 12.184-10.494 2.928-4.348 5.196-10.53 6.781-20.825 1.472-9.555 2.316-22.37 2.689-40.091-8.487-.123-25.089-1.42-40.478-12.188C92.92 51.984 76.339 53.29 67.877 53.414z" clip-rule="evenodd"/>
    <path fill="#8F9092" d="M193.92 64.035h-8.626v22.963h-5.801V64.035h-8.51v-4.6h22.937v4.6zm13.751 12.873h-4.623v10.09h-5.802V59.435h10.463c3.326 0 5.892.726 7.697 2.177 1.805 1.452 2.708 3.502 2.708 6.153 0 1.88-.42 3.451-1.258 4.713-.825 1.25-2.081 2.247-3.771 2.992l6.092 11.263v.265h-6.227l-5.279-10.09zm-4.623-4.6h4.68c1.458 0 2.586-.36 3.385-1.079.799-.732 1.199-1.735 1.199-3.01 0-1.3-.381-2.322-1.141-3.067-.748-.744-1.902-1.117-3.462-1.117h-4.661v8.273zm40.807-12.873V77.59c0 3.017-.968 5.402-2.901 7.156-1.921 1.754-4.551 2.632-7.891 2.632-3.287 0-5.898-.852-7.833-2.556-1.933-1.704-2.919-4.045-2.959-7.023V59.435h5.803v18.192c0 1.805.438 3.124 1.314 3.957.89.82 2.115 1.23 3.675 1.23 3.262 0 4.918-1.678 4.97-5.035V59.435h5.822zm19.358 20.331c0-1.072-.386-1.892-1.16-2.46-.773-.581-2.166-1.187-4.177-1.817-2.012-.645-3.604-1.276-4.777-1.894-3.198-1.691-4.796-3.969-4.796-6.834 0-1.489.424-2.814 1.276-3.975.863-1.174 2.095-2.089 3.694-2.745 1.611-.656 3.416-.984 5.415-.984 2.011 0 3.803.36 5.376 1.079 1.573.706 2.791 1.71 3.656 3.01.876 1.3 1.314 2.776 1.314 4.43h-5.802c0-1.263-.405-2.24-1.218-2.935-.812-.707-1.953-1.06-3.423-1.06-1.419 0-2.521.297-3.307.89-.787.58-1.18 1.35-1.18 2.31 0 .895.458 1.646 1.374 2.252.928.606 2.288 1.174 4.08 1.704 3.3.972 5.705 2.177 7.214 3.615 1.508 1.439 2.262 3.23 2.262 5.377 0 2.385-.922 4.26-2.765 5.622-1.844 1.35-4.325 2.026-7.446 2.026-2.166 0-4.138-.385-5.918-1.155-1.779-.782-3.139-1.849-4.081-3.2-.928-1.35-1.391-2.914-1.391-4.694h5.82c0 3.041 1.857 4.562 5.57 4.562 1.38 0 2.457-.271 3.23-.814.774-.555 1.16-1.325 1.16-2.31zm30.962-15.73h-8.625v22.962h-5.802V64.035h-8.509v-4.6h22.936v4.6zM181.286 113.218l.681 3.408.833-3.257 4.784-16.174h1.681l4.723 16.174.817 3.287.727-3.438 3.982-16.023h1.908l-5.647 21.948h-1.787l-4.997-17.17-.56-2.17-.544 2.17-5.118 17.17h-1.786l-5.632-21.948h1.907l4.028 16.023zm34.958-.226h-10.008l-2.27 6.151h-1.954l8.343-21.948h1.77l8.343 21.948h-1.938l-2.286-6.151zm-9.432-1.582h8.841l-4.42-11.954-4.421 11.954zm18.788 6.165h10.885v1.568h-12.763V97.195h1.878v20.38zm16.351 0h10.885v1.568h-12.762V97.195h1.877v20.38zm26.646-8.954h-10.311v8.954h11.856v1.568h-13.717V97.195h13.641v1.583h-11.78v8.276h10.311v1.567zm20.742-9.843h-7.555v20.365h-1.863V98.778h-7.539v-1.583h16.957v1.583z"/>
</svg>
