<svg xmlns="http://www.w3.org/2000/svg" width="24" height="25" fill="none" viewBox="0 0 24 25">
    <g clip-path="url(#a)">
        <path fill="#8F9092" fill-rule="evenodd" d="M2.846 7.16a.986.986 0 0 0-.303-.815L.303 3.538V3.12h6.958l5.378 12.263 4.728-12.263H24v.42l-1.916 1.909a.595.595 0 0 0-.213.56V20.04a.594.594 0 0 0 .213.558l1.871 1.91v.419h-9.412v-.42l1.939-1.956c.19-.197.19-.256.19-.558V8.65l-5.389 14.231h-.728L4.28 8.652v9.537c-.052.4.076.805.347 1.094l2.521 3.179v.42H0v-.42l2.521-3.18a1.3 1.3 0 0 0 .325-1.093V7.16z" clip-rule="evenodd"/>
    </g>
    <defs>
        <clipPath id="a">
            <path fill="#fff" d="M0 0h23.609v24.546H0z" transform="scale(1.01655)"/>
        </clipPath>
    </defs>
</svg>
