<svg xmlns="http://www.w3.org/2000/svg" width="22" height="22" fill="none" viewBox="0 0 22 22">
    <g clip-path="url(#a)">
        <path fill="#8F9092" d="M.389 10.607l5.069 1.892 1.962 6.31c.125.404.62.554.948.285l2.825-2.303a.843.843 0 0 1 1.028-.029l5.096 3.7c.351.255.849.063.936-.36l3.734-17.96a.598.598 0 0 0-.8-.679L.383 9.49a.598.598 0 0 0 .006 1.118zm6.715.885L17.01 5.39c.178-.11.361.131.208.273l-8.176 7.6a1.695 1.695 0 0 0-.525 1.015l-.279 2.064c-.037.275-.424.303-.5.036l-1.071-3.764a.997.997 0 0 1 .436-1.122z"/>
    </g>
    <defs>
        <clipPath id="a">
            <path fill="#fff" d="M0 0h22v22H0z"/>
        </clipPath>
    </defs>
</svg>
