<svg xmlns="http://www.w3.org/2000/svg" width="25" height="26" fill="none" viewBox="0 0 25 26">
    <g clip-path="url(#a)">
        <path fill="#8F9092" d="M25 4.801c-.93.413-1.92.686-2.953.819a5.144 5.144 0 0 0 2.255-2.865c-.991.598-2.085 1.02-3.25 1.255a5.11 5.11 0 0 0-3.744-1.64c-2.838 0-5.122 2.329-5.122 5.184 0 .41.034.806.119 1.182C8.044 8.526 4.273 6.46 1.74 3.315a5.262 5.262 0 0 0-.702 2.62c0 1.794.914 3.385 2.277 4.306A5.019 5.019 0 0 1 1 9.603v.057c0 2.518 1.777 4.61 4.106 5.092-.417.115-.872.17-1.343.17-.329 0-.66-.018-.97-.088.663 2.053 2.548 3.561 4.788 3.61a10.226 10.226 0 0 1-6.354 2.21c-.42 0-.824-.018-1.227-.07a14.313 14.313 0 0 0 7.862 2.326c9.432 0 14.588-7.9 14.588-14.748 0-.23-.008-.45-.019-.67A10.289 10.289 0 0 0 25 4.802z"/>
    </g>
    <defs>
        <clipPath id="a">
            <path fill="#fff" d="M0 0h24.838v25.116H0z" transform="scale(1.0065)"/>
        </clipPath>
    </defs>
</svg>
