<svg xmlns="http://www.w3.org/2000/svg" width="29" height="30" fill="none" viewBox="0 0 29 30">
    <g clip-path="url(#a)">
        <path fill="#8F9092" d="M22.977 4.287H6.023C2.697 4.287 0 7.014 0 10.377v8.57c0 3.364 2.697 6.09 6.023 6.09h16.954c3.326 0 6.023-2.726 6.023-6.09v-8.57c0-3.363-2.697-6.09-6.023-6.09zm-4.073 10.792l-7.93 3.825a.319.319 0 0 1-.456-.29v-7.889c0-.24.25-.396.463-.287l7.93 4.063a.324.324 0 0 1-.007.578z"/>
    </g>
    <defs>
        <clipPath id="a">
            <path fill="#fff" d="M0 0h28.978v29.302H0z" transform="scale(1.00075)"/>
        </clipPath>
    </defs>
</svg>
