<svg xmlns="http://www.w3.org/2000/svg" width="155" height="130" fill="none" viewBox="0 0 155 130">
    <rect width="155" height="123" y="6.42" fill="url(#a)" rx="10"/>
    <mask id="b" width="183" height="156" x="-31" y="-27" maskUnits="userSpaceOnUse">
        <path fill="#C4C4C4" d="M-31-27h183v156H-31z"/>
    </mask>
    <g mask="url(#b)">
        <path fill="url(#c)" d="M111.987 39.842s13.966 71.136 5.856 76.378a38.648 38.648 0 0 1-17.151 5.655l8.085 38.665s-47.826 7.313-58.484-12.75l-4.508-42.541C32.162 95.171 22.82 80.389 19.593 63.806 13.688 35.38 52.4-13.67 112.551 3.59c.049-.146 19.356 11.872-.564 36.25z" style="mix-blend-mode:screen"/>
        <path fill="#CC5C09" d="M112.642 3.57h-.146c-27.731-8-54.66-2.439-73.909 15.512C24.37 32.302 16.713 50.52 19.605 64.447a68.884 68.884 0 0 0 25.714 41.462l.268.171 6.902-3.171-.656-.536c-.17-.146-16.284-13.634-15.215-21.95a6.157 6.157 0 0 1 1.302-2.982 6.124 6.124 0 0 1 2.636-1.897 7.416 7.416 0 0 1 6.927 0c8.19 4.366 11.374 23.927 11.422 24.122v.487l9.722-.731-3.67-17.512c10.913-8.146 7.923-22.902 6.95-26.585 14.462-.341 39.714-14.244 40.03-14.414 7.048-8.659 10.013-16.756 8.798-24.073a20.316 20.316 0 0 0-2.728-7.444 20.244 20.244 0 0 0-5.365-5.824z"/>
        <path fill="url(#d)" d="M112.642 3.57h-.146c-27.731-8-54.66-2.439-73.909 15.512C24.37 32.302 16.713 50.52 19.605 64.447a68.884 68.884 0 0 0 25.714 41.462l.268.171 6.902-3.171-.656-.536c-.17-.146-16.284-13.634-15.215-21.95a6.157 6.157 0 0 1 1.302-2.982 6.124 6.124 0 0 1 2.636-1.897 7.416 7.416 0 0 1 6.927 0c8.19 4.366 11.374 23.927 11.422 24.122v.487l9.722-.731-3.67-17.512c10.913-8.146 7.923-22.902 6.95-26.585 14.462-.341 39.714-14.244 40.03-14.414 7.048-8.659 10.013-16.756 8.798-24.073a20.316 20.316 0 0 0-2.728-7.444 20.244 20.244 0 0 0-5.365-5.824z" style="mix-blend-mode:screen"/>
        <path fill="#92FFF9" d="M116.163 59.84l.757 4.935-1.564.815s.66 14.806-11.482 20.383c-12.142 5.578-16.638-12.536-16.638-12.536l-29.781 2.27-1.735-3.306 60.443-12.561zm-4.716 6.391l-19.813 4.936s4.422 15.399 11.385 11.969c6.963-3.43 8.428-16.904 8.428-16.904z" style="mix-blend-mode:screen"/>
    </g>
    <defs>
        <linearGradient id="a" x1="-17.365" x2="257.471" y1="6.42" y2="95.035" gradientUnits="userSpaceOnUse">
            <stop stop-color="#F7AA4D"/>
            <stop offset="1" stop-color="#BF11C8"/>
        </linearGradient>
        <linearGradient id="c" x1="-278737" x2="-282395" y1="-203845" y2="-196626" gradientUnits="userSpaceOnUse">
            <stop stop-color="#FFE0A1"/>
            <stop offset=".13" stop-color="#FDDB9B"/>
            <stop offset=".29" stop-color="#F9CC8B"/>
            <stop offset=".48" stop-color="#F1B370"/>
            <stop offset=".68" stop-color="#E6914A"/>
            <stop offset=".9" stop-color="#D8661A"/>
            <stop offset="1" stop-color="#D14F01"/>
        </linearGradient>
        <linearGradient id="d" x1="-52.451" x2="50.641" y1="-43.87" y2="-96.967" gradientUnits="userSpaceOnUse">
            <stop stop-color="#FF0514" stop-opacity="0"/>
            <stop offset=".1" stop-color="#F90B19" stop-opacity=".02"/>
            <stop offset=".22" stop-color="#EA1B26" stop-opacity=".09"/>
            <stop offset=".36" stop-color="#D0353B" stop-opacity=".19"/>
            <stop offset=".51" stop-color="#AB5A59" stop-opacity=".34"/>
            <stop offset=".68" stop-color="#7D8A7F" stop-opacity=".53"/>
            <stop offset=".84" stop-color="#45C3AD" stop-opacity=".76"/>
            <stop offset="1" stop-color="#0AFFDE"/>
        </linearGradient>
    </defs>
</svg>
