<svg xmlns="http://www.w3.org/2000/svg" width="482" height="438" fill="none" viewBox="0 0 482 438">
    <g mask="url(#b)">
        <circle cx="300.5" cy="218.5" r="194.481" stroke="#FFADF9" stroke-dasharray="5 5" opacity=".5"/>
        <circle cx="300.5" cy="218.5" r="234.853" stroke="#FFADF9" stroke-dasharray="5 5" opacity=".2"/>
        <circle cx="300.5" cy="218.5" r="300" stroke="#FFADF9" stroke-dasharray="5 5" opacity=".1"/>
        <circle cx="300.5" cy="218.5" r="144.933" stroke="#FFADF9" stroke-dasharray="5 5"/>
    </g>

        <path fill="#16C481" d="M244.988 170.328v20.4l56.286 34.267v-20.399l-56.286-34.268zM301.273 254.836l-56.285-34.237V200.2l56.285 34.236v20.4zM273.146 267.59l-28.158-17.119v-20.399l28.158 17.118v20.4z"/>
        <path fill="#23ECA6" d="M357.56 170.328l-56.286 34.268v20.399l56.286-34.267v-20.4zM301.274 254.836l56.286-34.237V200.2l-56.286 34.236v20.4zM329.401 267.59l28.158-17.119v-20.399l-28.158 17.118v20.4z"/>
    <defs>
        <linearGradient id="a" x1="-597" x2="1314.59" y1="7.079" y2="881.096" gradientUnits="userSpaceOnUse">
            <stop stop-color="#FFBB37"/>
            <stop offset=".51" stop-color="#BA28FF"/>
            <stop offset="1" stop-color="#C00FC4"/>
        </linearGradient>
    </defs>
</svg>
