<svg width="100" height="227" version="1.1" id="Слой_1" xmlns="http://www.w3.org/2000/svg" xmlns:xlink="http://www.w3.org/1999/xlink" x="0px" y="0px"
	 viewBox="0 0 100.7 227.8"  xml:space="preserve">
<style type="text/css">
	.st0{fill:none;stroke:#EC8E62;stroke-width:3;stroke-dasharray:5,5;}
	.st1{fill:#1E2124;}
	.st2{fill:none;stroke:#E48860;stroke-width:3;}
	.st3{fill:none;stroke:#DA5C8A;stroke-width:3;}
</style>
<path class="st0" d="M18.2,12.3C43.5,24,43.8,60.7,47.3,84.1c1.3,8.3,2.6,16.9,5.6,24.8"/>
<path class="st0" d="M52.9,112.4c13.4,21.5,14.2,47.8,23.6,70.8"/>
<path class="st0" d="M82.5,196.1c1,2,1.9,4,2.7,6.1"/>
<path class="st0" d="M86.1,204.3c1.2,2.4,2.3,4.8,3.3,7.3"/>
<path class="st0" d="M79,188.1c1.2,2.4,2.3,4.8,3.3,7.3"/>
<g>
	<circle class="st1" cx="9.7" cy="8.5" r="8.5"/>
	<circle class="st2" cx="9.7" cy="8.5" r="7"/>
</g>
<g>
	<circle class="st1" cx="92.3" cy="219.3" r="8.5"/>
	<circle class="st3" cx="92.3" cy="219.3" r="7"/>
</g>
</svg>
